basis33.sfdir
StartChar: exclam
Encoding: 33 33 4
Width: 448
Flags: W
LayerCount: 2
Back
Fore
SplineSet
192 0 m 1,0,-1
 192 64 l 1,1,-1
 256 64 l 1,2,-1
 256 0 l 1,3,-1
 192 0 l 1,0,-1
192 128 m 1,4,-1
 192 512 l 1,5,-1
 256 512 l 1,6,-1
 256 128 l 1,7,-1
 192 128 l 1,4,-1
EndSplineSet
EndChar
StartChar: quotedbl
Encoding: 34 34 5
Width: 448
Flags: W
LayerCount: 2
Back
Fore
SplineSet
128 384 m 1,0,-1
 128 576 l 1,1,-1
 192 576 l 1,2,-1
 192 384 l 1,3,-1
 128 384 l 1,0,-1
256 384 m 1,4,-1
 256 576 l 1,5,-1
 320 576 l 1,6,-1
 320 384 l 1,7,-1
 256 384 l 1,4,-1
EndSplineSet
EndChar
StartChar: numbersign
Encoding: 35 35 6
Width: 448
Flags: W
LayerCount: 2
Back
Fore
SplineSet
256 192 m 1,0,-1
 256 320 l 1,1,-1
 192 320 l 1,2,-1
 192 192 l 1,3,-1
 256 192 l 1,0,-1
64 0 m 1,4,-1
 64 128 l 1,5,-1
 0 128 l 1,6,-1
 0 192 l 1,7,-1
 128 192 l 1,8,-1
 128 320 l 1,9,-1
 64 320 l 1,10,-1
 64 384 l 1,11,-1
 192 384 l 1,12,-1
 192 512 l 1,13,-1
 256 512 l 1,14,-1
 256 384 l 1,15,-1
 320 384 l 1,16,-1
 320 512 l 1,17,-1
 384 512 l 1,18,-1
 384 384 l 1,19,-1
 448 384 l 1,20,-1
 448 320 l 1,21,-1
 320 320 l 1,22,-1
 320 192 l 1,23,-1
 384 192 l 1,24,-1
 384 128 l 1,25,-1
 256 128 l 1,26,-1
 256 0 l 1,27,-1
 192 0 l 1,28,-1
 192 128 l 1,29,-1
 128 128 l 1,30,-1
 128 0 l 1,31,-1
 64 0 l 1,4,-1
EndSplineSet
EndChar
StartChar: ampersand
Encoding: 38 38 9
Width: 448
Flags: W
LayerCount: 2
Back
Fore
SplineSet
128 0 m 1,0,-1
 128 64 l 1,1,-1
 320 64 l 1,2,-1
 320 0 l 1,3,-1
 128 0 l 1,0,-1
384 0 m 1,4,-1
 384 64 l 1,5,-1
 448 64 l 1,6,-1
 448 0 l 1,7,-1
 384 0 l 1,4,-1
320 64 m 1,8,-1
 320 192 l 1,9,-1
 384 192 l 1,10,-1
 384 64 l 1,11,-1
 320 64 l 1,8,-1
64 64 m 1,12,-1
 64 256 l 1,13,-1
 128 256 l 1,14,-1
 128 64 l 1,15,-1
 64 64 l 1,12,-1
256 192 m 1,16,-1
 256 256 l 1,17,-1
 320 256 l 1,18,-1
 320 192 l 1,19,-1
 256 192 l 1,16,-1
128 256 m 1,20,-1
 128 320 l 1,21,-1
 256 320 l 1,22,-1
 256 256 l 1,23,-1
 128 256 l 1,20,-1
384 192 m 1,24,-1
 384 320 l 1,25,-1
 448 320 l 1,26,-1
 448 192 l 1,27,-1
 384 192 l 1,24,-1
64 320 m 1,28,-1
 64 448 l 1,29,-1
 128 448 l 1,30,-1
 128 320 l 1,31,-1
 64 320 l 1,28,-1
256 320 m 1,32,-1
 256 448 l 1,33,-1
 320 448 l 1,34,-1
 320 320 l 1,35,-1
 256 320 l 1,32,-1
128 448 m 1,36,-1
 128 512 l 1,37,-1
 256 512 l 1,38,-1
 256 448 l 1,39,-1
 128 448 l 1,36,-1
EndSplineSet
EndChar
StartChar: parenright
Encoding: 41 41 12
Width: 448
Flags: W
LayerCount: 2
Back
Fore
SplineSet
128 -128 m 1,0,-1
 128 -64 l 1,1,-1
 192 -64 l 1,2,-1
 192 -128 l 1,3,-1
 128 -128 l 1,0,-1
192 -64 m 1,4,-1
 192 64 l 1,5,-1
 256 64 l 1,6,-1
 256 -64 l 1,7,-1
 192 -64 l 1,4,-1
256 64 m 1,8,-1
 256 384 l 1,9,-1
 320 384 l 1,10,-1
 320 64 l 1,11,-1
 256 64 l 1,8,-1
192 384 m 1,12,-1
 192 512 l 1,13,-1
 256 512 l 1,14,-1
 256 384 l 1,15,-1
 192 384 l 1,12,-1
128 512 m 1,16,-1
 128 576 l 1,17,-1
 192 576 l 1,18,-1
 192 512 l 1,19,-1
 128 512 l 1,16,-1
EndSplineSet
EndChar
StartChar: plus
Encoding: 43 43 14
Width: 448
Flags: W
LayerCount: 2
Back
Fore
SplineSet
192 64 m 1,0,-1
 192 192 l 1,1,-1
 64 192 l 1,2,-1
 64 256 l 1,3,-1
 192 256 l 1,4,-1
 192 384 l 1,5,-1
 256 384 l 1,6,-1
 256 256 l 1,7,-1
 384 256 l 1,8,-1
 384 192 l 1,9,-1
 256 192 l 1,10,-1
 256 64 l 1,11,-1
 192 64 l 1,0,-1
EndSplineSet
EndChar
StartChar: hyphen
Encoding: 45 45 16
Width: 448
Flags: W
LayerCount: 2
Back
Fore
SplineSet
64 192 m 1,0,-1
 64 256 l 1,1,-1
 384 256 l 1,2,-1
 384 192 l 1,3,-1
 64 192 l 1,0,-1
EndSplineSet
EndChar
StartChar: period
Encoding: 46 46 17
Width: 448
Flags: W
LayerCount: 2
Back
Fore
SplineSet
128 0 m 1,0,-1
 128 128 l 1,1,-1
 192 128 l 1,2,-1
 192 0 l 1,3,-1
 128 0 l 1,0,-1
EndSplineSet
EndChar
StartChar: one
Encoding: 49 49 20
Width: 448
Flags: W
LayerCount: 2
Back
Fore
SplineSet
64 320 m 1,0,-1
 64 384 l 1,1,-1
 128 384 l 1,2,-1
 128 320 l 1,3,-1
 64 320 l 1,0,-1
64 0 m 1,4,-1
 64 64 l 1,5,-1
 192 64 l 1,6,-1
 192 384 l 1,7,-1
 128 384 l 1,8,-1
 128 448 l 1,9,-1
 192 448 l 1,10,-1
 192 512 l 1,11,-1
 256 512 l 1,12,-1
 256 64 l 1,13,-1
 384 64 l 1,14,-1
 384 0 l 1,15,-1
 64 0 l 1,4,-1
EndSplineSet
EndChar
StartChar: seven
Encoding: 55 55 26
Width: 448
Flags: W
LayerCount: 2
Back
Fore
SplineSet
128 0 m 1,0,-1
 128 128 l 1,1,-1
 192 128 l 1,2,-1
 192 0 l 1,3,-1
 128 0 l 1,0,-1
192 128 m 1,4,-1
 192 256 l 1,5,-1
 256 256 l 1,6,-1
 256 128 l 1,7,-1
 192 128 l 1,4,-1
256 256 m 1,8,-1
 256 384 l 1,9,-1
 320 384 l 1,10,-1
 320 256 l 1,11,-1
 256 256 l 1,8,-1
320 384 m 1,12,-1
 320 448 l 1,13,-1
 64 448 l 1,14,-1
 64 512 l 1,15,-1
 384 512 l 1,16,-1
 384 384 l 1,17,-1
 320 384 l 1,12,-1
EndSplineSet
EndChar
StartChar: nine
Encoding: 57 57 28
Width: 448
Flags: W
LayerCount: 2
Back
Fore
SplineSet
128 0 m 1,0,-1
 128 64 l 1,1,-1
 256 64 l 1,2,-1
 256 0 l 1,3,-1
 128 0 l 1,0,-1
256 64 m 1,4,-1
 256 128 l 1,5,-1
 320 128 l 1,6,-1
 320 64 l 1,7,-1
 256 64 l 1,4,-1
64 256 m 1,8,-1
 64 448 l 1,9,-1
 128 448 l 1,10,-1
 128 256 l 1,11,-1
 64 256 l 1,8,-1
320 128 m 1,12,-1
 320 192 l 1,13,-1
 128 192 l 1,14,-1
 128 256 l 1,15,-1
 320 256 l 1,16,-1
 320 448 l 1,17,-1
 384 448 l 1,18,-1
 384 128 l 1,19,-1
 320 128 l 1,12,-1
128 448 m 1,20,-1
 128 512 l 1,21,-1
 320 512 l 1,22,-1
 320 448 l 1,23,-1
 128 448 l 1,20,-1
EndSplineSet
EndChar
StartChar: colon
Encoding: 58 58 29
Width: 448
Flags: W
LayerCount: 2
Back
Fore
SplineSet
192 0 m 1,0,-1
 192 128 l 1,1,-1
 256 128 l 1,2,-1
 256 0 l 1,3,-1
 192 0 l 1,0,-1
192 256 m 1,4,-1
 192 384 l 1,5,-1
 256 384 l 1,6,-1
 256 256 l 1,7,-1
 192 256 l 1,4,-1
EndSplineSet
EndChar
StartChar: semicolon
Encoding: 59 59 30
Width: 448
Flags: W
LayerCount: 2
Back
Fore
SplineSet
128 -128 m 1,0,-1
 128 -64 l 1,1,-1
 192 -64 l 1,2,-1
 192 -128 l 1,3,-1
 128 -128 l 1,0,-1
192 -64 m 1,4,-1
 192 128 l 1,5,-1
 256 128 l 1,6,-1
 256 -64 l 1,7,-1
 192 -64 l 1,4,-1
192 256 m 1,8,-1
 192 384 l 1,9,-1
 256 384 l 1,10,-1
 256 256 l 1,11,-1
 192 256 l 1,8,-1
EndSplineSet
EndChar
StartChar: less
Encoding: 60 60 31
Width: 448
Flags: W
LayerCount: 2
Back
Fore
SplineSet
256 64 m 1,0,-1
 256 128 l 1,1,-1
 384 128 l 1,2,-1
 384 64 l 1,3,-1
 256 64 l 1,0,-1
128 128 m 1,4,-1
 128 192 l 1,5,-1
 256 192 l 1,6,-1
 256 128 l 1,7,-1
 128 128 l 1,4,-1
0 192 m 1,8,-1
 0 256 l 1,9,-1
 128 256 l 1,10,-1
 128 192 l 1,11,-1
 0 192 l 1,8,-1
128 256 m 1,12,-1
 128 320 l 1,13,-1
 256 320 l 1,14,-1
 256 256 l 1,15,-1
 128 256 l 1,12,-1
256 320 m 1,16,-1
 256 384 l 1,17,-1
 384 384 l 1,18,-1
 384 320 l 1,19,-1
 256 320 l 1,16,-1
EndSplineSet
EndChar
StartChar: equal
Encoding: 61 61 32
Width: 448
Flags: W
LayerCount: 2
Back
Fore
SplineSet
64 128 m 1,0,-1
 64 192 l 1,1,-1
 448 192 l 1,2,-1
 448 128 l 1,3,-1
 64 128 l 1,0,-1
64 256 m 1,4,-1
 64 320 l 1,5,-1
 448 320 l 1,6,-1
 448 256 l 1,7,-1
 64 256 l 1,4,-1
EndSplineSet
EndChar
StartChar: greater
Encoding: 62 62 33
Width: 448
Flags: W
LayerCount: 2
Back
Fore
SplineSet
64 64 m 1,0,-1
 64 128 l 1,1,-1
 192 128 l 1,2,-1
 192 64 l 1,3,-1
 64 64 l 1,0,-1
192 128 m 1,4,-1
 192 192 l 1,5,-1
 320 192 l 1,6,-1
 320 128 l 1,7,-1
 192 128 l 1,4,-1
320 192 m 1,8,-1
 320 256 l 1,9,-1
 448 256 l 1,10,-1
 448 192 l 1,11,-1
 320 192 l 1,8,-1
192 256 m 1,12,-1
 192 320 l 1,13,-1
 320 320 l 1,14,-1
 320 256 l 1,15,-1
 192 256 l 1,12,-1
64 320 m 1,16,-1
 64 384 l 1,17,-1
 192 384 l 1,18,-1
 192 320 l 1,19,-1
 64 320 l 1,16,-1
EndSplineSet
EndChar
StartChar: question
Encoding: 63 63 34
Width: 448
Flags: W
LayerCount: 2
Back
Fore
SplineSet
192 0 m 1,0,-1
 192 64 l 1,1,-1
 256 64 l 1,2,-1
 256 0 l 1,3,-1
 192 0 l 1,0,-1
192 128 m 1,4,-1
 192 256 l 1,5,-1
 256 256 l 1,6,-1
 256 128 l 1,7,-1
 192 128 l 1,4,-1
256 256 m 1,8,-1
 256 320 l 1,9,-1
 320 320 l 1,10,-1
 320 256 l 1,11,-1
 256 256 l 1,8,-1
64 384 m 1,12,-1
 64 448 l 1,13,-1
 128 448 l 1,14,-1
 128 384 l 1,15,-1
 64 384 l 1,12,-1
320 320 m 1,16,-1
 320 448 l 1,17,-1
 384 448 l 1,18,-1
 384 320 l 1,19,-1
 320 320 l 1,16,-1
128 448 m 1,20,-1
 128 512 l 1,21,-1
 320 512 l 1,22,-1
 320 448 l 1,23,-1
 128 448 l 1,20,-1
EndSplineSet
EndChar
StartChar: at
Encoding: 64 64 35
Width: 448
Flags: W
LayerCount: 2
Back
Fore
SplineSet
128 0 m 1,0,-1
 128 64 l 1,1,-1
 384 64 l 1,2,-1
 384 0 l 1,3,-1
 128 0 l 1,0,-1
64 64 m 1,4,-1
 64 128 l 1,5,-1
 128 128 l 1,6,-1
 128 64 l 1,7,-1
 64 64 l 1,4,-1
128 192 m 1,8,-1
 128 320 l 1,9,-1
 192 320 l 1,10,-1
 192 192 l 1,11,-1
 128 192 l 1,8,-1
0 128 m 1,12,-1
 0 384 l 1,13,-1
 64 384 l 1,14,-1
 64 128 l 1,15,-1
 0 128 l 1,12,-1
192 128 m 1,16,-1
 192 192 l 1,17,-1
 256 192 l 1,18,-1
 256 320 l 1,19,-1
 192 320 l 1,20,-1
 192 384 l 1,21,-1
 320 384 l 1,22,-1
 320 192 l 1,23,-1
 384 192 l 1,24,-1
 384 128 l 1,25,-1
 192 128 l 1,16,-1
384 192 m 1,26,-1
 384 384 l 1,27,-1
 448 384 l 1,28,-1
 448 192 l 1,29,-1
 384 192 l 1,26,-1
64 384 m 1,30,-1
 64 448 l 1,31,-1
 128 448 l 1,32,-1
 128 384 l 1,33,-1
 64 384 l 1,30,-1
320 384 m 1,34,-1
 320 448 l 1,35,-1
 384 448 l 1,36,-1
 384 384 l 1,37,-1
 320 384 l 1,34,-1
128 448 m 1,38,-1
 128 512 l 1,39,-1
 320 512 l 1,40,-1
 320 448 l 1,41,-1
 128 448 l 1,38,-1
EndSplineSet
EndChar
StartChar: F
Encoding: 70 70 41
Width: 448
Flags: W
LayerCount: 2
Back
Fore
SplineSet
64 0 m 1,0,-1
 64 512 l 1,1,-1
 384 512 l 1,2,-1
 384 448 l 1,3,-1
 128 448 l 1,4,-1
 128 320 l 1,5,-1
 320 320 l 1,6,-1
 320 256 l 1,7,-1
 128 256 l 1,8,-1
 128 0 l 1,9,-1
 64 0 l 1,0,-1
EndSplineSet
EndChar
StartChar: G
Encoding: 71 71 42
Width: 448
Flags: W
LayerCount: 2
Back
Fore
SplineSet
192 0 m 1,0,-1
 192 64 l 1,1,-1
 384 64 l 1,2,-1
 384 0 l 1,3,-1
 192 0 l 1,0,-1
128 64 m 1,4,-1
 128 128 l 1,5,-1
 192 128 l 1,6,-1
 192 64 l 1,7,-1
 128 64 l 1,4,-1
384 64 m 1,8,-1
 384 192 l 1,9,-1
 256 192 l 1,10,-1
 256 256 l 1,11,-1
 448 256 l 1,12,-1
 448 64 l 1,13,-1
 384 64 l 1,8,-1
64 128 m 1,14,-1
 64 384 l 1,15,-1
 128 384 l 1,16,-1
 128 128 l 1,17,-1
 64 128 l 1,14,-1
128 384 m 1,18,-1
 128 448 l 1,19,-1
 192 448 l 1,20,-1
 192 384 l 1,21,-1
 128 384 l 1,18,-1
384 384 m 1,22,-1
 384 448 l 1,23,-1
 448 448 l 1,24,-1
 448 384 l 1,25,-1
 384 384 l 1,22,-1
192 448 m 1,26,-1
 192 512 l 1,27,-1
 384 512 l 1,28,-1
 384 448 l 1,29,-1
 192 448 l 1,26,-1
EndSplineSet
EndChar
StartChar: I
Encoding: 73 73 44
Width: 448
Flags: W
LayerCount: 2
Back
Fore
SplineSet
128 0 m 1,0,-1
 128 64 l 1,1,-1
 192 64 l 1,2,-1
 192 448 l 1,3,-1
 128 448 l 1,4,-1
 128 512 l 1,5,-1
 320 512 l 1,6,-1
 320 448 l 1,7,-1
 256 448 l 1,8,-1
 256 64 l 1,9,-1
 320 64 l 1,10,-1
 320 0 l 1,11,-1
 128 0 l 1,0,-1
EndSplineSet
EndChar
StartChar: J
Encoding: 74 74 45
Width: 448
Flags: W
LayerCount: 2
Back
Fore
SplineSet
64 0 m 1,0,-1
 64 64 l 1,1,-1
 256 64 l 1,2,-1
 256 0 l 1,3,-1
 64 0 l 1,0,-1
256 64 m 1,4,-1
 256 448 l 1,5,-1
 128 448 l 1,6,-1
 128 512 l 1,7,-1
 320 512 l 1,8,-1
 320 64 l 1,9,-1
 256 64 l 1,4,-1
EndSplineSet
EndChar
StartChar: L
Encoding: 76 76 47
Width: 448
Flags: W
LayerCount: 2
Back
Fore
SplineSet
64 0 m 1,0,-1
 64 512 l 1,1,-1
 128 512 l 1,2,-1
 128 64 l 1,3,-1
 384 64 l 1,4,-1
 384 0 l 1,5,-1
 64 0 l 1,0,-1
EndSplineSet
EndChar
StartChar: U
Encoding: 85 85 56
Width: 448
Flags: W
LayerCount: 2
Back
Fore
SplineSet
128 0 m 1,0,-1
 128 64 l 1,1,-1
 384 64 l 1,2,-1
 384 0 l 1,3,-1
 128 0 l 1,0,-1
64 64 m 1,4,-1
 64 512 l 1,5,-1
 128 512 l 1,6,-1
 128 64 l 1,7,-1
 64 64 l 1,4,-1
384 64 m 1,8,-1
 384 512 l 1,9,-1
 448 512 l 1,10,-1
 448 64 l 1,11,-1
 384 64 l 1,8,-1
EndSplineSet
EndChar
StartChar: X
Encoding: 88 88 59
Width: 448
Flags: W
LayerCount: 2
Back
Fore
SplineSet
64 0 m 1,0,-1
 64 128 l 1,1,-1
 128 128 l 1,2,-1
 128 0 l 1,3,-1
 64 0 l 1,0,-1
384 0 m 1,4,-1
 384 128 l 1,5,-1
 448 128 l 1,6,-1
 448 0 l 1,7,-1
 384 0 l 1,4,-1
128 128 m 1,8,-1
 128 192 l 1,9,-1
 192 192 l 1,10,-1
 192 128 l 1,11,-1
 128 128 l 1,8,-1
320 128 m 1,12,-1
 320 192 l 1,13,-1
 384 192 l 1,14,-1
 384 128 l 1,15,-1
 320 128 l 1,12,-1
192 192 m 1,16,-1
 192 320 l 1,17,-1
 320 320 l 1,18,-1
 320 192 l 1,19,-1
 192 192 l 1,16,-1
128 320 m 1,20,-1
 128 384 l 1,21,-1
 192 384 l 1,22,-1
 192 320 l 1,23,-1
 128 320 l 1,20,-1
320 320 m 1,24,-1
 320 384 l 1,25,-1
 384 384 l 1,26,-1
 384 320 l 1,27,-1
 320 320 l 1,24,-1
64 384 m 1,28,-1
 64 512 l 1,29,-1
 128 512 l 1,30,-1
 128 384 l 1,31,-1
 64 384 l 1,28,-1
384 384 m 1,32,-1
 384 512 l 1,33,-1
 448 512 l 1,34,-1
 448 384 l 1,35,-1
 384 384 l 1,32,-1
EndSplineSet
EndChar
StartChar: Y
Encoding: 89 89 60
Width: 448
Flags: W
LayerCount: 2
Back
Fore
SplineSet
192 0 m 1,0,-1
 192 256 l 1,1,-1
 256 256 l 1,2,-1
 256 0 l 1,3,-1
 192 0 l 1,0,-1
128 256 m 1,4,-1
 128 320 l 1,5,-1
 192 320 l 1,6,-1
 192 256 l 1,7,-1
 128 256 l 1,4,-1
256 256 m 1,8,-1
 256 320 l 1,9,-1
 320 320 l 1,10,-1
 320 256 l 1,11,-1
 256 256 l 1,8,-1
64 320 m 1,12,-1
 64 384 l 1,13,-1
 128 384 l 1,14,-1
 128 320 l 1,15,-1
 64 320 l 1,12,-1
320 320 m 1,16,-1
 320 384 l 1,17,-1
 384 384 l 1,18,-1
 384 320 l 1,19,-1
 320 320 l 1,16,-1
0 384 m 1,20,-1
 0 512 l 1,21,-1
 64 512 l 1,22,-1
 64 384 l 1,23,-1
 0 384 l 1,20,-1
384 384 m 1,24,-1
 384 512 l 1,25,-1
 448 512 l 1,26,-1
 448 384 l 1,27,-1
 384 384 l 1,24,-1
EndSplineSet
EndChar
StartChar: bracketleft
Encoding: 91 91 62
Width: 448
Flags: W
LayerCount: 2
Back
Fore
SplineSet
128 -128 m 1,0,-1
 128 576 l 1,1,-1
 320 576 l 1,2,-1
 320 512 l 1,3,-1
 192 512 l 1,4,-1
 192 -64 l 1,5,-1
 320 -64 l 1,6,-1
 320 -128 l 1,7,-1
 128 -128 l 1,0,-1
EndSplineSet
EndChar
StartChar: backslash
Encoding: 92 92 63
Width: 448
Flags: W
LayerCount: 2
Back
Fore
SplineSet
320 -64 m 1,0,-1
 320 64 l 1,1,-1
 384 64 l 1,2,-1
 384 -64 l 1,3,-1
 320 -64 l 1,0,-1
256 64 m 1,4,-1
 256 192 l 1,5,-1
 320 192 l 1,6,-1
 320 64 l 1,7,-1
 256 64 l 1,4,-1
192 192 m 1,8,-1
 192 320 l 1,9,-1
 256 320 l 1,10,-1
 256 192 l 1,11,-1
 192 192 l 1,8,-1
128 320 m 1,12,-1
 128 448 l 1,13,-1
 192 448 l 1,14,-1
 192 320 l 1,15,-1
 128 320 l 1,12,-1
64 448 m 1,16,-1
 64 576 l 1,17,-1
 128 576 l 1,18,-1
 128 448 l 1,19,-1
 64 448 l 1,16,-1
EndSplineSet
EndChar
StartChar: bracketright
Encoding: 93 93 64
Width: 448
Flags: W
LayerCount: 2
Back
Fore
SplineSet
128 -128 m 1,0,-1
 128 -64 l 1,1,-1
 256 -64 l 1,2,-1
 256 512 l 1,3,-1
 128 512 l 1,4,-1
 128 576 l 1,5,-1
 320 576 l 1,6,-1
 320 -128 l 1,7,-1
 128 -128 l 1,0,-1
EndSplineSet
EndChar
StartChar: asciicircum
Encoding: 94 94 65
Width: 448
Flags: W
LayerCount: 2
Back
Fore
SplineSet
64 192 m 1,0,-1
 64 320 l 1,1,-1
 128 320 l 1,2,-1
 128 192 l 1,3,-1
 64 192 l 1,0,-1
320 192 m 1,4,-1
 320 320 l 1,5,-1
 384 320 l 1,6,-1
 384 192 l 1,7,-1
 320 192 l 1,4,-1
128 320 m 1,8,-1
 128 448 l 1,9,-1
 192 448 l 1,10,-1
 192 320 l 1,11,-1
 128 320 l 1,8,-1
256 320 m 1,12,-1
 256 448 l 1,13,-1
 320 448 l 1,14,-1
 320 320 l 1,15,-1
 256 320 l 1,12,-1
192 448 m 1,16,-1
 192 576 l 1,17,-1
 256 576 l 1,18,-1
 256 448 l 1,19,-1
 192 448 l 1,16,-1
EndSplineSet
EndChar
StartChar: underscore
Encoding: 95 95 66
Width: 448
Flags: W
LayerCount: 2
Back
Fore
SplineSet
0 -64 m 1,0,-1
 0 0 l 1,1,-1
 448 0 l 1,2,-1
 448 -64 l 1,3,-1
 0 -64 l 1,0,-1
EndSplineSet
EndChar
StartChar: b
Encoding: 98 98 69
Width: 448
Flags: W
LayerCount: 2
Back
Fore
SplineSet
320 64 m 1,0,-1
 320 320 l 1,1,-1
 384 320 l 1,2,-1
 384 64 l 1,3,-1
 320 64 l 1,0,-1
64 0 m 1,4,-1
 64 576 l 1,5,-1
 128 576 l 1,6,-1
 128 384 l 1,7,-1
 320 384 l 1,8,-1
 320 320 l 1,9,-1
 128 320 l 1,10,-1
 128 64 l 1,11,-1
 320 64 l 1,12,-1
 320 0 l 1,13,-1
 64 0 l 1,4,-1
EndSplineSet
EndChar
StartChar: d
Encoding: 100 100 71
Width: 448
Flags: W
LayerCount: 2
Back
Fore
SplineSet
64 64 m 1,0,-1
 64 320 l 1,1,-1
 128 320 l 1,2,-1
 128 64 l 1,3,-1
 64 64 l 1,0,-1
128 0 m 1,4,-1
 128 64 l 1,5,-1
 320 64 l 1,6,-1
 320 320 l 1,7,-1
 128 320 l 1,8,-1
 128 384 l 1,9,-1
 320 384 l 1,10,-1
 320 576 l 1,11,-1
 384 576 l 1,12,-1
 384 0 l 1,13,-1
 128 0 l 1,4,-1
EndSplineSet
EndChar
StartChar: f
Encoding: 102 102 73
Width: 448
Flags: W
LayerCount: 2
Back
Fore
SplineSet
128 0 m 1,0,-1
 128 320 l 1,1,-1
 64 320 l 1,2,-1
 64 384 l 1,3,-1
 128 384 l 1,4,-1
 128 512 l 1,5,-1
 192 512 l 1,6,-1
 192 384 l 1,7,-1
 320 384 l 1,8,-1
 320 320 l 1,9,-1
 192 320 l 1,10,-1
 192 0 l 1,11,-1
 128 0 l 1,0,-1
192 512 m 1,12,-1
 192 576 l 1,13,-1
 384 576 l 1,14,-1
 384 512 l 1,15,-1
 192 512 l 1,12,-1
EndSplineSet
EndChar
StartChar: g
Encoding: 103 103 74
Width: 448
Flags: W
LayerCount: 2
Back
Fore
SplineSet
128 -192 m 1,0,-1
 128 -128 l 1,1,-1
 320 -128 l 1,2,-1
 320 -192 l 1,3,-1
 128 -192 l 1,0,-1
64 -128 m 1,4,-1
 64 0 l 1,5,-1
 128 0 l 1,6,-1
 128 -128 l 1,7,-1
 64 -128 l 1,4,-1
320 -128 m 1,8,-1
 320 0 l 1,9,-1
 384 0 l 1,10,-1
 384 -128 l 1,11,-1
 320 -128 l 1,8,-1
128 0 m 1,12,-1
 128 64 l 1,13,-1
 320 64 l 1,14,-1
 320 0 l 1,15,-1
 128 0 l 1,12,-1
64 64 m 1,16,-1
 64 128 l 1,17,-1
 128 128 l 1,18,-1
 128 64 l 1,19,-1
 64 64 l 1,16,-1
128 128 m 1,20,-1
 128 192 l 1,21,-1
 256 192 l 1,22,-1
 256 128 l 1,23,-1
 128 128 l 1,20,-1
64 192 m 1,24,-1
 64 320 l 1,25,-1
 128 320 l 1,26,-1
 128 192 l 1,27,-1
 64 192 l 1,24,-1
256 192 m 1,28,-1
 256 320 l 1,29,-1
 320 320 l 1,30,-1
 320 192 l 1,31,-1
 256 192 l 1,28,-1
128 320 m 1,32,-1
 128 384 l 1,33,-1
 256 384 l 1,34,-1
 256 320 l 1,35,-1
 128 320 l 1,32,-1
320 320 m 1,36,-1
 320 384 l 1,37,-1
 384 384 l 1,38,-1
 384 320 l 1,39,-1
 320 320 l 1,36,-1
EndSplineSet
EndChar
StartChar: l
Encoding: 108 108 79
Width: 448
Flags: W
LayerCount: 2
Back
Fore
SplineSet
256 0 m 1,0,-1
 256 64 l 1,1,-1
 320 64 l 1,2,-1
 320 0 l 1,3,-1
 256 0 l 1,0,-1
192 64 m 1,4,-1
 192 512 l 1,5,-1
 128 512 l 1,6,-1
 128 576 l 1,7,-1
 256 576 l 1,8,-1
 256 64 l 1,9,-1
 192 64 l 1,4,-1
EndSplineSet
EndChar
StartChar: n
Encoding: 110 110 81
Width: 448
Flags: W
LayerCount: 2
Back
Fore
SplineSet
320 0 m 1,0,-1
 320 320 l 1,1,-1
 384 320 l 1,2,-1
 384 0 l 1,3,-1
 320 0 l 1,0,-1
64 0 m 1,4,-1
 64 384 l 1,5,-1
 320 384 l 1,6,-1
 320 320 l 1,7,-1
 128 320 l 1,8,-1
 128 0 l 1,9,-1
 64 0 l 1,4,-1
EndSplineSet
EndChar
StartChar: q
Encoding: 113 113 84
Width: 448
Flags: W
LayerCount: 2
Back
Fore
SplineSet
64 64 m 1,0,-1
 64 320 l 1,1,-1
 128 320 l 1,2,-1
 128 64 l 1,3,-1
 64 64 l 1,0,-1
320 -192 m 1,4,-1
 320 0 l 1,5,-1
 128 0 l 1,6,-1
 128 64 l 1,7,-1
 320 64 l 1,8,-1
 320 320 l 1,9,-1
 128 320 l 1,10,-1
 128 384 l 1,11,-1
 384 384 l 1,12,-1
 384 -192 l 1,13,-1
 320 -192 l 1,4,-1
EndSplineSet
EndChar
StartChar: s
Encoding: 115 115 86
Width: 448
Flags: W
LayerCount: 2
Back
Fore
SplineSet
64 0 m 1,0,-1
 64 64 l 1,1,-1
 320 64 l 1,2,-1
 320 0 l 1,3,-1
 64 0 l 1,0,-1
320 64 m 1,4,-1
 320 128 l 1,5,-1
 384 128 l 1,6,-1
 384 64 l 1,7,-1
 320 64 l 1,4,-1
256 128 m 1,8,-1
 256 192 l 1,9,-1
 320 192 l 1,10,-1
 320 128 l 1,11,-1
 256 128 l 1,8,-1
128 192 m 1,12,-1
 128 256 l 1,13,-1
 256 256 l 1,14,-1
 256 192 l 1,15,-1
 128 192 l 1,12,-1
64 256 m 1,16,-1
 64 320 l 1,17,-1
 128 320 l 1,18,-1
 128 256 l 1,19,-1
 64 256 l 1,16,-1
128 320 m 1,20,-1
 128 384 l 1,21,-1
 384 384 l 1,22,-1
 384 320 l 1,23,-1
 128 320 l 1,20,-1
EndSplineSet
EndChar
StartChar: t
Encoding: 116 116 87
Width: 448
Flags: W
LayerCount: 2
Back
Fore
SplineSet
192 0 m 1,0,-1
 192 64 l 1,1,-1
 384 64 l 1,2,-1
 384 0 l 1,3,-1
 192 0 l 1,0,-1
128 64 m 1,4,-1
 128 512 l 1,5,-1
 192 512 l 1,6,-1
 192 384 l 1,7,-1
 384 384 l 1,8,-1
 384 320 l 1,9,-1
 192 320 l 1,10,-1
 192 64 l 1,11,-1
 128 64 l 1,4,-1
EndSplineSet
EndChar
StartChar: z
Encoding: 122 122 93
Width: 448
Flags: W
LayerCount: 2
Back
Fore
SplineSet
64 0 m 1,0,-1
 64 64 l 1,1,-1
 128 64 l 1,2,-1
 128 128 l 1,3,-1
 192 128 l 1,4,-1
 192 64 l 1,5,-1
 384 64 l 1,6,-1
 384 0 l 1,7,-1
 64 0 l 1,0,-1
192 128 m 1,8,-1
 192 192 l 1,9,-1
 256 192 l 1,10,-1
 256 128 l 1,11,-1
 192 128 l 1,8,-1
256 192 m 1,12,-1
 256 256 l 1,13,-1
 320 256 l 1,14,-1
 320 192 l 1,15,-1
 256 192 l 1,12,-1
320 256 m 1,16,-1
 320 320 l 1,17,-1
 64 320 l 1,18,-1
 64 384 l 1,19,-1
 384 384 l 1,20,-1
 384 256 l 1,21,-1
 320 256 l 1,16,-1
EndSplineSet
EndChar
StartChar: braceleft
Encoding: 123 123 94
Width: 448
Flags: W
LayerCount: 2
Back
Fore
SplineSet
256 -128 m 1,0,-1
 256 -64 l 1,1,-1
 384 -64 l 1,2,-1
 384 -128 l 1,3,-1
 256 -128 l 1,0,-1
192 -64 m 1,4,-1
 192 192 l 1,5,-1
 256 192 l 1,6,-1
 256 -64 l 1,7,-1
 192 -64 l 1,4,-1
64 192 m 1,8,-1
 64 256 l 1,9,-1
 192 256 l 1,10,-1
 192 192 l 1,11,-1
 64 192 l 1,8,-1
192 256 m 1,12,-1
 192 512 l 1,13,-1
 256 512 l 1,14,-1
 256 256 l 1,15,-1
 192 256 l 1,12,-1
256 512 m 1,16,-1
 256 576 l 1,17,-1
 384 576 l 1,18,-1
 384 512 l 1,19,-1
 256 512 l 1,16,-1
EndSplineSet
EndChar
StartChar: bar
Encoding: 124 124 95
Width: 448
Flags: W
LayerCount: 2
Back
Fore
SplineSet
192 -128 m 1,0,-1
 192 576 l 1,1,-1
 256 576 l 1,2,-1
 256 -128 l 1,3,-1
 192 -128 l 1,0,-1
EndSplineSet
EndChar
StartChar: braceright
Encoding: 125 125 96
Width: 448
Flags: W
LayerCount: 2
Back
Fore
SplineSet
64 -128 m 1,0,-1
 64 -64 l 1,1,-1
 192 -64 l 1,2,-1
 192 -128 l 1,3,-1
 64 -128 l 1,0,-1
192 -64 m 1,4,-1
 192 192 l 1,5,-1
 256 192 l 1,6,-1
 256 -64 l 1,7,-1
 192 -64 l 1,4,-1
256 192 m 1,8,-1
 256 256 l 1,9,-1
 384 256 l 1,10,-1
 384 192 l 1,11,-1
 256 192 l 1,8,-1
192 256 m 1,12,-1
 192 512 l 1,13,-1
 256 512 l 1,14,-1
 256 256 l 1,15,-1
 192 256 l 1,12,-1
64 512 m 1,16,-1
 64 576 l 1,17,-1
 192 576 l 1,18,-1
 192 512 l 1,19,-1
 64 512 l 1,16,-1
EndSplineSet
EndChar
StartChar: asciitilde
Encoding: 126 126 97
Width: 448
Flags: W
LayerCount: 2
Back
Fore
SplineSet
0 192 m 1,0,-1
 0 256 l 1,1,-1
 64 256 l 1,2,-1
 64 192 l 1,3,-1
 0 192 l 1,0,-1
192 192 m 1,4,-1
 192 256 l 1,5,-1
 64 256 l 1,6,-1
 64 320 l 1,7,-1
 256 320 l 1,8,-1
 256 256 l 1,9,-1
 384 256 l 1,10,-1
 384 192 l 1,11,-1
 192 192 l 1,4,-1
384 256 m 1,12,-1
 384 320 l 1,13,-1
 448 320 l 1,14,-1
 448 256 l 1,15,-1
 384 256 l 1,12,-1
EndSplineSet
EndChar
StartChar: uni007F
Encoding: 127 127 98
Width: 448
Flags: W
LayerCount: 2
Back
Fore
SplineSet
384 -128 m 1,0,-1
 384 576 l 1,1,-1
 64 576 l 1,2,-1
 64 -128 l 1,3,-1
 384 -128 l 1,0,-1
0 -192 m 1,4,-1
 0 640 l 1,5,-1
 448 640 l 1,6,-1
 448 -192 l 1,7,-1
 0 -192 l 1,4,-1
EndSplineSet
EndChar
StartChar: exclamdown
Encoding: 161 161 100
Width: 448
Flags: W
LayerCount: 2
Back
Fore
SplineSet
192 0 m 1,0,-1
 192 384 l 1,1,-1
 256 384 l 1,2,-1
 256 0 l 1,3,-1
 192 0 l 1,0,-1
192 448 m 1,4,-1
 192 512 l 1,5,-1
 256 512 l 1,6,-1
 256 448 l 1,7,-1
 192 448 l 1,4,-1
EndSplineSet
EndChar
StartChar: yen
Encoding: 165 165 104
Width: 448
Flags: W
LayerCount: 2
Back
Fore
SplineSet
192 0 m 1,0,-1
 192 128 l 1,1,-1
 64 128 l 1,2,-1
 64 192 l 1,3,-1
 192 192 l 1,4,-1
 192 256 l 1,5,-1
 256 256 l 1,6,-1
 256 192 l 1,7,-1
 384 192 l 1,8,-1
 384 128 l 1,9,-1
 256 128 l 1,10,-1
 256 0 l 1,11,-1
 192 0 l 1,0,-1
128 256 m 1,12,-1
 128 320 l 1,13,-1
 192 320 l 1,14,-1
 192 256 l 1,15,-1
 128 256 l 1,12,-1
256 256 m 1,16,-1
 256 320 l 1,17,-1
 320 320 l 1,18,-1
 320 256 l 1,19,-1
 256 256 l 1,16,-1
64 320 m 1,20,-1
 64 384 l 1,21,-1
 128 384 l 1,22,-1
 128 320 l 1,23,-1
 64 320 l 1,20,-1
320 320 m 1,24,-1
 320 384 l 1,25,-1
 384 384 l 1,26,-1
 384 320 l 1,27,-1
 320 320 l 1,24,-1
0 384 m 1,28,-1
 0 512 l 1,29,-1
 64 512 l 1,30,-1
 64 384 l 1,31,-1
 0 384 l 1,28,-1
384 384 m 1,32,-1
 384 512 l 1,33,-1
 448 512 l 1,34,-1
 448 384 l 1,35,-1
 384 384 l 1,32,-1
EndSplineSet
EndChar
StartChar: brokenbar
Encoding: 166 166 105
Width: 448
Flags: W
LayerCount: 2
Back
Fore
SplineSet
192 -128 m 1,0,-1
 192 192 l 1,1,-1
 256 192 l 1,2,-1
 256 -128 l 1,3,-1
 192 -128 l 1,0,-1
192 256 m 1,4,-1
 192 576 l 1,5,-1
 256 576 l 1,6,-1
 256 256 l 1,7,-1
 192 256 l 1,4,-1
EndSplineSet
EndChar
StartChar: section
Encoding: 167 167 106
Width: 448
Flags: W
LayerCount: 2
Back
Fore
SplineSet
128 0 m 1,0,-1
 128 64 l 1,1,-1
 320 64 l 1,2,-1
 320 0 l 1,3,-1
 128 0 l 1,0,-1
64 64 m 1,4,-1
 64 128 l 1,5,-1
 128 128 l 1,6,-1
 128 64 l 1,7,-1
 64 64 l 1,4,-1
320 64 m 1,8,-1
 320 192 l 1,9,-1
 384 192 l 1,10,-1
 384 64 l 1,11,-1
 320 64 l 1,8,-1
192 192 m 1,12,-1
 192 256 l 1,13,-1
 256 256 l 1,14,-1
 256 320 l 1,15,-1
 320 320 l 1,16,-1
 320 192 l 1,17,-1
 192 192 l 1,12,-1
128 256 m 1,18,-1
 128 384 l 1,19,-1
 256 384 l 1,20,-1
 256 320 l 1,21,-1
 192 320 l 1,22,-1
 192 256 l 1,23,-1
 128 256 l 1,18,-1
64 384 m 1,24,-1
 64 512 l 1,25,-1
 128 512 l 1,26,-1
 128 384 l 1,27,-1
 64 384 l 1,24,-1
320 448 m 1,28,-1
 320 512 l 1,29,-1
 384 512 l 1,30,-1
 384 448 l 1,31,-1
 320 448 l 1,28,-1
128 512 m 1,32,-1
 128 576 l 1,33,-1
 320 576 l 1,34,-1
 320 512 l 1,35,-1
 128 512 l 1,32,-1
EndSplineSet
EndChar
StartChar: dieresis
Encoding: 168 168 107
Width: 448
Flags: W
LayerCount: 2
Back
Fore
SplineSet
128 512 m 1,0,-1
 128 576 l 1,1,-1
 192 576 l 1,2,-1
 192 512 l 1,3,-1
 128 512 l 1,0,-1
256 512 m 1,4,-1
 256 576 l 1,5,-1
 320 576 l 1,6,-1
 320 512 l 1,7,-1
 256 512 l 1,4,-1
EndSplineSet
EndChar
StartChar: ordfeminine
Encoding: 170 170 109
Width: 448
Flags: W
LayerCount: 2
Back
Fore
SplineSet
64 256 m 1,0,-1
 64 320 l 1,1,-1
 128 320 l 1,2,-1
 128 256 l 1,3,-1
 64 256 l 1,0,-1
128 192 m 1,4,-1
 128 256 l 1,5,-1
 256 256 l 1,6,-1
 256 320 l 1,7,-1
 128 320 l 1,8,-1
 128 384 l 1,9,-1
 256 384 l 1,10,-1
 256 448 l 1,11,-1
 320 448 l 1,12,-1
 320 192 l 1,13,-1
 128 192 l 1,4,-1
128 448 m 1,14,-1
 128 512 l 1,15,-1
 256 512 l 1,16,-1
 256 448 l 1,17,-1
 128 448 l 1,14,-1
EndSplineSet
EndChar
StartChar: guillemotleft
Encoding: 171 171 110
Width: 448
Flags: W
LayerCount: 2
Back
Fore
SplineSet
192 64 m 1,0,-1
 192 128 l 1,1,-1
 256 128 l 1,2,-1
 256 64 l 1,3,-1
 192 64 l 1,0,-1
320 64 m 1,4,-1
 320 128 l 1,5,-1
 384 128 l 1,6,-1
 384 64 l 1,7,-1
 320 64 l 1,4,-1
128 128 m 1,8,-1
 128 192 l 1,9,-1
 192 192 l 1,10,-1
 192 128 l 1,11,-1
 128 128 l 1,8,-1
256 128 m 1,12,-1
 256 192 l 1,13,-1
 320 192 l 1,14,-1
 320 128 l 1,15,-1
 256 128 l 1,12,-1
64 192 m 1,16,-1
 64 256 l 1,17,-1
 128 256 l 1,18,-1
 128 192 l 1,19,-1
 64 192 l 1,16,-1
192 192 m 1,20,-1
 192 256 l 1,21,-1
 256 256 l 1,22,-1
 256 192 l 1,23,-1
 192 192 l 1,20,-1
128 256 m 1,24,-1
 128 320 l 1,25,-1
 192 320 l 1,26,-1
 192 256 l 1,27,-1
 128 256 l 1,24,-1
256 256 m 1,28,-1
 256 320 l 1,29,-1
 320 320 l 1,30,-1
 320 256 l 1,31,-1
 256 256 l 1,28,-1
192 320 m 1,32,-1
 192 384 l 1,33,-1
 256 384 l 1,34,-1
 256 320 l 1,35,-1
 192 320 l 1,32,-1
320 320 m 1,36,-1
 320 384 l 1,37,-1
 384 384 l 1,38,-1
 384 320 l 1,39,-1
 320 320 l 1,36,-1
EndSplineSet
EndChar
StartChar: logicalnot
Encoding: 172 172 111
Width: 448
Flags: W
LayerCount: 2
Back
Fore
SplineSet
256 64 m 1,0,-1
 256 192 l 1,1,-1
 64 192 l 1,2,-1
 64 256 l 1,3,-1
 320 256 l 1,4,-1
 320 64 l 1,5,-1
 256 64 l 1,0,-1
EndSplineSet
EndChar
StartChar: uni00AD
Encoding: 173 173 112
Width: 448
Flags: W
LayerCount: 2
Back
Fore
SplineSet
128 128 m 1,0,-1
 128 192 l 1,1,-1
 320 192 l 1,2,-1
 320 128 l 1,3,-1
 128 128 l 1,0,-1
EndSplineSet
EndChar
StartChar: registered
Encoding: 174 174 113
Width: 448
Flags: W
LayerCount: 2
Back
Fore
SplineSet
64 0 m 1,0,-1
 64 64 l 1,1,-1
 384 64 l 1,2,-1
 384 0 l 1,3,-1
 64 0 l 1,0,-1
256 128 m 1,4,-1
 256 192 l 1,5,-1
 320 192 l 1,6,-1
 320 128 l 1,7,-1
 256 128 l 1,4,-1
256 256 m 1,8,-1
 256 320 l 1,9,-1
 320 320 l 1,10,-1
 320 256 l 1,11,-1
 256 256 l 1,8,-1
128 128 m 1,12,-1
 128 384 l 1,13,-1
 256 384 l 1,14,-1
 256 320 l 1,15,-1
 192 320 l 1,16,-1
 192 256 l 1,17,-1
 256 256 l 1,18,-1
 256 192 l 1,19,-1
 192 192 l 1,20,-1
 192 128 l 1,21,-1
 128 128 l 1,12,-1
0 64 m 1,22,-1
 0 448 l 1,23,-1
 64 448 l 1,24,-1
 64 64 l 1,25,-1
 0 64 l 1,22,-1
384 64 m 1,26,-1
 384 448 l 1,27,-1
 448 448 l 1,28,-1
 448 64 l 1,29,-1
 384 64 l 1,26,-1
64 448 m 1,30,-1
 64 512 l 1,31,-1
 384 512 l 1,32,-1
 384 448 l 1,33,-1
 64 448 l 1,30,-1
EndSplineSet
EndChar
StartChar: macron
Encoding: 175 175 114
Width: 448
Flags: W
LayerCount: 2
Back
Fore
SplineSet
0 576 m 1,0,-1
 0 640 l 1,1,-1
 448 640 l 1,2,-1
 448 576 l 1,3,-1
 0 576 l 1,0,-1
EndSplineSet
EndChar
StartChar: degree
Encoding: 176 176 115
Width: 448
Flags: W
LayerCount: 2
Back
Fore
SplineSet
128 320 m 1,0,-1
 128 384 l 1,1,-1
 256 384 l 1,2,-1
 256 320 l 1,3,-1
 128 320 l 1,0,-1
64 384 m 1,4,-1
 64 512 l 1,5,-1
 128 512 l 1,6,-1
 128 384 l 1,7,-1
 64 384 l 1,4,-1
256 384 m 1,8,-1
 256 512 l 1,9,-1
 320 512 l 1,10,-1
 320 384 l 1,11,-1
 256 384 l 1,8,-1
128 512 m 1,12,-1
 128 576 l 1,13,-1
 256 576 l 1,14,-1
 256 512 l 1,15,-1
 128 512 l 1,12,-1
EndSplineSet
EndChar
StartChar: plusminus
Encoding: 177 177 116
Width: 448
Flags: W
LayerCount: 2
Back
Fore
SplineSet
64 0 m 1,0,-1
 64 64 l 1,1,-1
 384 64 l 1,2,-1
 384 0 l 1,3,-1
 64 0 l 1,0,-1
192 128 m 1,4,-1
 192 256 l 1,5,-1
 64 256 l 1,6,-1
 64 320 l 1,7,-1
 192 320 l 1,8,-1
 192 448 l 1,9,-1
 256 448 l 1,10,-1
 256 320 l 1,11,-1
 384 320 l 1,12,-1
 384 256 l 1,13,-1
 256 256 l 1,14,-1
 256 128 l 1,15,-1
 192 128 l 1,4,-1
EndSplineSet
EndChar
StartChar: uni00B3
Encoding: 179 179 118
Width: 448
Flags: W
LayerCount: 2
Back
Fore
SplineSet
64 256 m 1,0,-1
 64 320 l 1,1,-1
 256 320 l 1,2,-1
 256 256 l 1,3,-1
 64 256 l 1,0,-1
256 320 m 1,4,-1
 256 384 l 1,5,-1
 320 384 l 1,6,-1
 320 320 l 1,7,-1
 256 320 l 1,4,-1
128 384 m 1,8,-1
 128 448 l 1,9,-1
 256 448 l 1,10,-1
 256 384 l 1,11,-1
 128 384 l 1,8,-1
256 448 m 1,12,-1
 256 512 l 1,13,-1
 320 512 l 1,14,-1
 320 448 l 1,15,-1
 256 448 l 1,12,-1
64 512 m 1,16,-1
 64 576 l 1,17,-1
 256 576 l 1,18,-1
 256 512 l 1,19,-1
 64 512 l 1,16,-1
EndSplineSet
EndChar
StartChar: acute
Encoding: 180 180 119
Width: 448
Flags: W
LayerCount: 2
Back
Fore
SplineSet
192 448 m 1,0,-1
 192 512 l 1,1,-1
 256 512 l 1,2,-1
 256 448 l 1,3,-1
 192 448 l 1,0,-1
256 512 m 1,4,-1
 256 576 l 1,5,-1
 320 576 l 1,6,-1
 320 512 l 1,7,-1
 256 512 l 1,4,-1
EndSplineSet
EndChar
StartChar: mu
Encoding: 181 181 120
Width: 448
Flags: W
LayerCount: 2
Back
Fore
SplineSet
0 -128 m 1,0,-1
 0 -64 l 1,1,-1
 64 -64 l 1,2,-1
 64 -128 l 1,3,-1
 0 -128 l 1,0,-1
192 0 m 1,4,-1
 192 64 l 1,5,-1
 320 64 l 1,6,-1
 320 0 l 1,7,-1
 192 0 l 1,4,-1
384 0 m 1,8,-1
 384 64 l 1,9,-1
 448 64 l 1,10,-1
 448 0 l 1,11,-1
 384 0 l 1,8,-1
64 -64 m 1,12,-1
 64 384 l 1,13,-1
 128 384 l 1,14,-1
 128 128 l 1,15,-1
 192 128 l 1,16,-1
 192 64 l 1,17,-1
 128 64 l 1,18,-1
 128 -64 l 1,19,-1
 64 -64 l 1,12,-1
320 64 m 1,20,-1
 320 384 l 1,21,-1
 384 384 l 1,22,-1
 384 64 l 1,23,-1
 320 64 l 1,20,-1
EndSplineSet
EndChar
StartChar: paragraph
Encoding: 182 182 121
Width: 448
Flags: W
LayerCount: 2
Back
Fore
SplineSet
192 -64 m 1,0,-1
 192 256 l 1,1,-1
 128 256 l 1,2,-1
 128 320 l 1,3,-1
 64 320 l 1,4,-1
 64 448 l 1,5,-1
 128 448 l 1,6,-1
 128 512 l 1,7,-1
 448 512 l 1,8,-1
 448 448 l 1,9,-1
 384 448 l 1,10,-1
 384 -64 l 1,11,-1
 320 -64 l 1,12,-1
 320 448 l 1,13,-1
 256 448 l 1,14,-1
 256 -64 l 1,15,-1
 192 -64 l 1,0,-1
EndSplineSet
EndChar
StartChar: cedilla
Encoding: 184 184 123
Width: 448
Flags: W
LayerCount: 2
Back
Fore
SplineSet
192 -320 m 1,0,-1
 192 -256 l 1,1,-1
 320 -256 l 1,2,-1
 320 -320 l 1,3,-1
 192 -320 l 1,0,-1
320 -256 m 1,4,-1
 320 -128 l 1,5,-1
 192 -128 l 1,6,-1
 192 0 l 1,7,-1
 256 0 l 1,8,-1
 256 -64 l 1,9,-1
 384 -64 l 1,10,-1
 384 -256 l 1,11,-1
 320 -256 l 1,4,-1
EndSplineSet
EndChar
StartChar: ordmasculine
Encoding: 186 186 125
Width: 448
Flags: W
LayerCount: 2
Back
Fore
SplineSet
128 256 m 1,0,-1
 128 320 l 1,1,-1
 256 320 l 1,2,-1
 256 256 l 1,3,-1
 128 256 l 1,0,-1
64 320 m 1,4,-1
 64 512 l 1,5,-1
 128 512 l 1,6,-1
 128 320 l 1,7,-1
 64 320 l 1,4,-1
256 320 m 1,8,-1
 256 512 l 1,9,-1
 320 512 l 1,10,-1
 320 320 l 1,11,-1
 256 320 l 1,8,-1
128 512 m 1,12,-1
 128 576 l 1,13,-1
 256 576 l 1,14,-1
 256 512 l 1,15,-1
 128 512 l 1,12,-1
EndSplineSet
EndChar
StartChar: guillemotright
Encoding: 187 187 126
Width: 448
Flags: W
LayerCount: 2
Back
Fore
SplineSet
64 64 m 1,0,-1
 64 128 l 1,1,-1
 128 128 l 1,2,-1
 128 64 l 1,3,-1
 64 64 l 1,0,-1
192 64 m 1,4,-1
 192 128 l 1,5,-1
 256 128 l 1,6,-1
 256 64 l 1,7,-1
 192 64 l 1,4,-1
128 128 m 1,8,-1
 128 192 l 1,9,-1
 192 192 l 1,10,-1
 192 128 l 1,11,-1
 128 128 l 1,8,-1
256 128 m 1,12,-1
 256 192 l 1,13,-1
 320 192 l 1,14,-1
 320 128 l 1,15,-1
 256 128 l 1,12,-1
192 192 m 1,16,-1
 192 256 l 1,17,-1
 256 256 l 1,18,-1
 256 192 l 1,19,-1
 192 192 l 1,16,-1
320 192 m 1,20,-1
 320 256 l 1,21,-1
 384 256 l 1,22,-1
 384 192 l 1,23,-1
 320 192 l 1,20,-1
128 256 m 1,24,-1
 128 320 l 1,25,-1
 192 320 l 1,26,-1
 192 256 l 1,27,-1
 128 256 l 1,24,-1
256 256 m 1,28,-1
 256 320 l 1,29,-1
 320 320 l 1,30,-1
 320 256 l 1,31,-1
 256 256 l 1,28,-1
64 320 m 1,32,-1
 64 384 l 1,33,-1
 128 384 l 1,34,-1
 128 320 l 1,35,-1
 64 320 l 1,32,-1
192 320 m 1,36,-1
 192 384 l 1,37,-1
 256 384 l 1,38,-1
 256 320 l 1,39,-1
 192 320 l 1,36,-1
EndSplineSet
EndChar
StartChar: onequarter
Encoding: 188 188 127
Width: 448
Flags: W
LayerCount: 2
Back
Fore
SplineSet
64 0 m 1,0,-1
 64 128 l 1,1,-1
 128 128 l 1,2,-1
 128 0 l 1,3,-1
 64 0 l 1,0,-1
128 128 m 1,4,-1
 128 256 l 1,5,-1
 192 256 l 1,6,-1
 192 128 l 1,7,-1
 128 128 l 1,4,-1
320 0 m 1,8,-1
 320 64 l 1,9,-1
 192 64 l 1,10,-1
 192 128 l 1,11,-1
 256 128 l 1,12,-1
 256 192 l 1,13,-1
 320 192 l 1,14,-1
 320 256 l 1,15,-1
 384 256 l 1,16,-1
 384 128 l 1,17,-1
 448 128 l 1,18,-1
 448 64 l 1,19,-1
 384 64 l 1,20,-1
 384 0 l 1,21,-1
 320 0 l 1,8,-1
192 256 m 1,22,-1
 192 384 l 1,23,-1
 256 384 l 1,24,-1
 256 256 l 1,25,-1
 192 256 l 1,22,-1
256 384 m 1,26,-1
 256 512 l 1,27,-1
 320 512 l 1,28,-1
 320 384 l 1,29,-1
 256 384 l 1,26,-1
64 320 m 1,30,-1
 64 576 l 1,31,-1
 128 576 l 1,32,-1
 128 320 l 1,33,-1
 64 320 l 1,30,-1
320 512 m 1,34,-1
 320 640 l 1,35,-1
 384 640 l 1,36,-1
 384 512 l 1,37,-1
 320 512 l 1,34,-1
EndSplineSet
EndChar
StartChar: onehalf
Encoding: 189 189 128
Width: 448
Flags: W
LayerCount: 2
Back
Fore
SplineSet
64 0 m 1,0,-1
 64 128 l 1,1,-1
 128 128 l 1,2,-1
 128 0 l 1,3,-1
 64 0 l 1,0,-1
256 0 m 1,4,-1
 256 128 l 1,5,-1
 320 128 l 1,6,-1
 320 64 l 1,7,-1
 448 64 l 1,8,-1
 448 0 l 1,9,-1
 256 0 l 1,4,-1
320 128 m 1,10,-1
 320 192 l 1,11,-1
 384 192 l 1,12,-1
 384 128 l 1,13,-1
 320 128 l 1,10,-1
128 128 m 1,14,-1
 128 256 l 1,15,-1
 192 256 l 1,16,-1
 192 128 l 1,17,-1
 128 128 l 1,14,-1
384 192 m 1,18,-1
 384 256 l 1,19,-1
 448 256 l 1,20,-1
 448 192 l 1,21,-1
 384 192 l 1,18,-1
192 256 m 1,22,-1
 192 384 l 1,23,-1
 256 384 l 1,24,-1
 256 320 l 1,25,-1
 384 320 l 1,26,-1
 384 256 l 1,27,-1
 192 256 l 1,22,-1
256 384 m 1,28,-1
 256 512 l 1,29,-1
 320 512 l 1,30,-1
 320 384 l 1,31,-1
 256 384 l 1,28,-1
64 320 m 1,32,-1
 64 576 l 1,33,-1
 128 576 l 1,34,-1
 128 320 l 1,35,-1
 64 320 l 1,32,-1
320 512 m 1,36,-1
 320 640 l 1,37,-1
 384 640 l 1,38,-1
 384 512 l 1,39,-1
 320 512 l 1,36,-1
EndSplineSet
EndChar
StartChar: questiondown
Encoding: 191 191 130
Width: 448
Flags: W
LayerCount: 2
Back
Fore
SplineSet
128 0 m 1,0,-1
 128 64 l 1,1,-1
 320 64 l 1,2,-1
 320 0 l 1,3,-1
 128 0 l 1,0,-1
320 64 m 1,4,-1
 320 128 l 1,5,-1
 384 128 l 1,6,-1
 384 64 l 1,7,-1
 320 64 l 1,4,-1
64 64 m 1,8,-1
 64 192 l 1,9,-1
 128 192 l 1,10,-1
 128 64 l 1,11,-1
 64 64 l 1,8,-1
128 192 m 1,12,-1
 128 256 l 1,13,-1
 192 256 l 1,14,-1
 192 192 l 1,15,-1
 128 192 l 1,12,-1
192 256 m 1,16,-1
 192 384 l 1,17,-1
 256 384 l 1,18,-1
 256 256 l 1,19,-1
 192 256 l 1,16,-1
192 448 m 1,20,-1
 192 512 l 1,21,-1
 256 512 l 1,22,-1
 256 448 l 1,23,-1
 192 448 l 1,20,-1
EndSplineSet
EndChar
StartChar: Acircumflex
Encoding: 194 194 133
Width: 448
Flags: W
LayerCount: 2
Back
Fore
SplineSet
64 0 m 1,0,-1
 64 192 l 1,1,-1
 128 192 l 1,2,-1
 128 0 l 1,3,-1
 64 0 l 1,0,-1
384 0 m 1,4,-1
 384 192 l 1,5,-1
 448 192 l 1,6,-1
 448 0 l 1,7,-1
 384 0 l 1,4,-1
128 192 m 1,8,-1
 128 384 l 1,9,-1
 192 384 l 1,10,-1
 192 256 l 1,11,-1
 320 256 l 1,12,-1
 320 384 l 1,13,-1
 384 384 l 1,14,-1
 384 192 l 1,15,-1
 128 192 l 1,8,-1
192 384 m 1,16,-1
 192 512 l 1,17,-1
 320 512 l 1,18,-1
 320 384 l 1,19,-1
 192 384 l 1,16,-1
128 576 m 1,20,-1
 128 640 l 1,21,-1
 192 640 l 1,22,-1
 192 576 l 1,23,-1
 128 576 l 1,20,-1
320 576 m 1,24,-1
 320 640 l 1,25,-1
 384 640 l 1,26,-1
 384 576 l 1,27,-1
 320 576 l 1,24,-1
192 640 m 1,28,-1
 192 704 l 1,29,-1
 320 704 l 1,30,-1
 320 640 l 1,31,-1
 192 640 l 1,28,-1
EndSplineSet
EndChar
StartChar: AE
Encoding: 198 198 137
Width: 448
Flags: W
LayerCount: 2
Back
Fore
SplineSet
0 0 m 1,0,-1
 0 192 l 1,1,-1
 64 192 l 1,2,-1
 64 0 l 1,3,-1
 0 0 l 1,0,-1
128 320 m 1,4,-1
 128 448 l 1,5,-1
 192 448 l 1,6,-1
 192 320 l 1,7,-1
 128 320 l 1,4,-1
256 0 m 1,8,-1
 256 192 l 1,9,-1
 64 192 l 1,10,-1
 64 320 l 1,11,-1
 128 320 l 1,12,-1
 128 256 l 1,13,-1
 256 256 l 1,14,-1
 256 448 l 1,15,-1
 192 448 l 1,16,-1
 192 512 l 1,17,-1
 448 512 l 1,18,-1
 448 448 l 1,19,-1
 320 448 l 1,20,-1
 320 320 l 1,21,-1
 384 320 l 1,22,-1
 384 256 l 1,23,-1
 320 256 l 1,24,-1
 320 64 l 1,25,-1
 448 64 l 1,26,-1
 448 0 l 1,27,-1
 256 0 l 1,8,-1
EndSplineSet
EndChar
StartChar: Ecircumflex
Encoding: 202 202 141
Width: 448
Flags: W
LayerCount: 2
Back
Fore
SplineSet
64 0 m 1,0,-1
 64 512 l 1,1,-1
 384 512 l 1,2,-1
 384 448 l 1,3,-1
 128 448 l 1,4,-1
 128 320 l 1,5,-1
 320 320 l 1,6,-1
 320 256 l 1,7,-1
 128 256 l 1,8,-1
 128 64 l 1,9,-1
 384 64 l 1,10,-1
 384 0 l 1,11,-1
 64 0 l 1,0,-1
128 576 m 1,12,-1
 128 640 l 1,13,-1
 192 640 l 1,14,-1
 192 576 l 1,15,-1
 128 576 l 1,12,-1
256 576 m 1,16,-1
 256 640 l 1,17,-1
 320 640 l 1,18,-1
 320 576 l 1,19,-1
 256 576 l 1,16,-1
192 640 m 1,20,-1
 192 704 l 1,21,-1
 256 704 l 1,22,-1
 256 640 l 1,23,-1
 192 640 l 1,20,-1
EndSplineSet
EndChar
StartChar: Iacute
Encoding: 205 205 144
Width: 448
Flags: W
LayerCount: 2
Back
Fore
SplineSet
128 0 m 1,0,-1
 128 64 l 1,1,-1
 192 64 l 1,2,-1
 192 448 l 1,3,-1
 128 448 l 1,4,-1
 128 512 l 1,5,-1
 320 512 l 1,6,-1
 320 448 l 1,7,-1
 256 448 l 1,8,-1
 256 64 l 1,9,-1
 320 64 l 1,10,-1
 320 0 l 1,11,-1
 128 0 l 1,0,-1
192 576 m 1,12,-1
 192 640 l 1,13,-1
 256 640 l 1,14,-1
 256 576 l 1,15,-1
 192 576 l 1,12,-1
256 640 m 1,16,-1
 256 704 l 1,17,-1
 320 704 l 1,18,-1
 320 640 l 1,19,-1
 256 640 l 1,16,-1
EndSplineSet
EndChar
StartChar: Ntilde
Encoding: 209 209 148
Width: 448
Flags: W
LayerCount: 2
Back
Fore
SplineSet
256 128 m 1,0,-1
 256 256 l 1,1,-1
 320 256 l 1,2,-1
 320 128 l 1,3,-1
 256 128 l 1,0,-1
192 256 m 1,4,-1
 192 384 l 1,5,-1
 256 384 l 1,6,-1
 256 256 l 1,7,-1
 192 256 l 1,4,-1
64 0 m 1,8,-1
 64 512 l 1,9,-1
 192 512 l 1,10,-1
 192 384 l 1,11,-1
 128 384 l 1,12,-1
 128 0 l 1,13,-1
 64 0 l 1,8,-1
320 0 m 1,14,-1
 320 128 l 1,15,-1
 384 128 l 1,16,-1
 384 512 l 1,17,-1
 448 512 l 1,18,-1
 448 0 l 1,19,-1
 320 0 l 1,14,-1
128 576 m 1,20,-1
 128 640 l 1,21,-1
 192 640 l 1,22,-1
 192 576 l 1,23,-1
 128 576 l 1,20,-1
256 576 m 1,24,-1
 256 640 l 1,25,-1
 320 640 l 1,26,-1
 320 576 l 1,27,-1
 256 576 l 1,24,-1
192 640 m 1,28,-1
 192 704 l 1,29,-1
 256 704 l 1,30,-1
 256 640 l 1,31,-1
 192 640 l 1,28,-1
320 640 m 1,32,-1
 320 704 l 1,33,-1
 384 704 l 1,34,-1
 384 640 l 1,35,-1
 320 640 l 1,32,-1
EndSplineSet
EndChar
StartChar: Otilde
Encoding: 213 213 152
Width: 448
Flags: W
LayerCount: 2
Back
Fore
SplineSet
192 0 m 1,0,-1
 192 64 l 1,1,-1
 320 64 l 1,2,-1
 320 0 l 1,3,-1
 192 0 l 1,0,-1
128 64 m 1,4,-1
 128 128 l 1,5,-1
 192 128 l 1,6,-1
 192 64 l 1,7,-1
 128 64 l 1,4,-1
320 64 m 1,8,-1
 320 128 l 1,9,-1
 384 128 l 1,10,-1
 384 64 l 1,11,-1
 320 64 l 1,8,-1
64 128 m 1,12,-1
 64 384 l 1,13,-1
 128 384 l 1,14,-1
 128 128 l 1,15,-1
 64 128 l 1,12,-1
384 128 m 1,16,-1
 384 384 l 1,17,-1
 448 384 l 1,18,-1
 448 128 l 1,19,-1
 384 128 l 1,16,-1
128 384 m 1,20,-1
 128 448 l 1,21,-1
 192 448 l 1,22,-1
 192 384 l 1,23,-1
 128 384 l 1,20,-1
320 384 m 1,24,-1
 320 448 l 1,25,-1
 384 448 l 1,26,-1
 384 384 l 1,27,-1
 320 384 l 1,24,-1
192 448 m 1,28,-1
 192 512 l 1,29,-1
 320 512 l 1,30,-1
 320 448 l 1,31,-1
 192 448 l 1,28,-1
128 576 m 1,32,-1
 128 640 l 1,33,-1
 192 640 l 1,34,-1
 192 576 l 1,35,-1
 128 576 l 1,32,-1
256 576 m 1,36,-1
 256 640 l 1,37,-1
 320 640 l 1,38,-1
 320 576 l 1,39,-1
 256 576 l 1,36,-1
192 640 m 1,40,-1
 192 704 l 1,41,-1
 256 704 l 1,42,-1
 256 640 l 1,43,-1
 192 640 l 1,40,-1
320 640 m 1,44,-1
 320 704 l 1,45,-1
 384 704 l 1,46,-1
 384 640 l 1,47,-1
 320 640 l 1,44,-1
EndSplineSet
EndChar
StartChar: Uacute
Encoding: 218 218 157
Width: 448
Flags: W
LayerCount: 2
Back
Fore
SplineSet
128 0 m 1,0,-1
 128 64 l 1,1,-1
 384 64 l 1,2,-1
 384 0 l 1,3,-1
 128 0 l 1,0,-1
64 64 m 1,4,-1
 64 512 l 1,5,-1
 128 512 l 1,6,-1
 128 64 l 1,7,-1
 64 64 l 1,4,-1
384 64 m 1,8,-1
 384 512 l 1,9,-1
 448 512 l 1,10,-1
 448 64 l 1,11,-1
 384 64 l 1,8,-1
192 576 m 1,12,-1
 192 640 l 1,13,-1
 256 640 l 1,14,-1
 256 576 l 1,15,-1
 192 576 l 1,12,-1
256 640 m 1,16,-1
 256 704 l 1,17,-1
 320 704 l 1,18,-1
 320 640 l 1,19,-1
 256 640 l 1,16,-1
EndSplineSet
EndChar
StartChar: Udieresis
Encoding: 220 220 159
Width: 448
Flags: W
LayerCount: 2
Back
Fore
SplineSet
128 0 m 1,0,-1
 128 64 l 1,1,-1
 384 64 l 1,2,-1
 384 0 l 1,3,-1
 128 0 l 1,0,-1
64 64 m 1,4,-1
 64 512 l 1,5,-1
 128 512 l 1,6,-1
 128 64 l 1,7,-1
 64 64 l 1,4,-1
384 64 m 1,8,-1
 384 512 l 1,9,-1
 448 512 l 1,10,-1
 448 64 l 1,11,-1
 384 64 l 1,8,-1
128 576 m 1,12,-1
 128 640 l 1,13,-1
 192 640 l 1,14,-1
 192 576 l 1,15,-1
 128 576 l 1,12,-1
320 576 m 1,16,-1
 320 640 l 1,17,-1
 384 640 l 1,18,-1
 384 576 l 1,19,-1
 320 576 l 1,16,-1
EndSplineSet
EndChar
StartChar: Thorn
Encoding: 222 222 161
Width: 448
Flags: W
LayerCount: 2
Back
Fore
SplineSet
320 192 m 1,0,-1
 320 320 l 1,1,-1
 384 320 l 1,2,-1
 384 192 l 1,3,-1
 320 192 l 1,0,-1
64 0 m 1,4,-1
 64 512 l 1,5,-1
 128 512 l 1,6,-1
 128 384 l 1,7,-1
 320 384 l 1,8,-1
 320 320 l 1,9,-1
 128 320 l 1,10,-1
 128 192 l 1,11,-1
 320 192 l 1,12,-1
 320 128 l 1,13,-1
 128 128 l 1,14,-1
 128 0 l 1,15,-1
 64 0 l 1,4,-1
EndSplineSet
EndChar
StartChar: atilde
Encoding: 227 227 166
Width: 448
Flags: W
LayerCount: 2
Back
Fore
SplineSet
64 64 m 1,0,-1
 64 192 l 1,1,-1
 128 192 l 1,2,-1
 128 64 l 1,3,-1
 64 64 l 1,0,-1
128 0 m 1,4,-1
 128 64 l 1,5,-1
 320 64 l 1,6,-1
 320 192 l 1,7,-1
 128 192 l 1,8,-1
 128 256 l 1,9,-1
 320 256 l 1,10,-1
 320 320 l 1,11,-1
 384 320 l 1,12,-1
 384 0 l 1,13,-1
 128 0 l 1,4,-1
128 320 m 1,14,-1
 128 384 l 1,15,-1
 320 384 l 1,16,-1
 320 320 l 1,17,-1
 128 320 l 1,14,-1
128 448 m 1,18,-1
 128 512 l 1,19,-1
 192 512 l 1,20,-1
 192 448 l 1,21,-1
 128 448 l 1,18,-1
256 448 m 1,22,-1
 256 512 l 1,23,-1
 320 512 l 1,24,-1
 320 448 l 1,25,-1
 256 448 l 1,22,-1
192 512 m 1,26,-1
 192 576 l 1,27,-1
 256 576 l 1,28,-1
 256 512 l 1,29,-1
 192 512 l 1,26,-1
320 512 m 1,30,-1
 320 576 l 1,31,-1
 384 576 l 1,32,-1
 384 512 l 1,33,-1
 320 512 l 1,30,-1
EndSplineSet
EndChar
StartChar: ae
Encoding: 230 230 169
Width: 448
Flags: W
LayerCount: 2
Back
Fore
SplineSet
384 64 m 1,0,-1
 384 128 l 1,1,-1
 448 128 l 1,2,-1
 448 64 l 1,3,-1
 384 64 l 1,0,-1
0 64 m 1,4,-1
 0 192 l 1,5,-1
 64 192 l 1,6,-1
 64 64 l 1,7,-1
 0 64 l 1,4,-1
64 0 m 1,8,-1
 64 64 l 1,9,-1
 192 64 l 1,10,-1
 192 192 l 1,11,-1
 64 192 l 1,12,-1
 64 256 l 1,13,-1
 192 256 l 1,14,-1
 192 320 l 1,15,-1
 256 320 l 1,16,-1
 256 256 l 1,17,-1
 384 256 l 1,18,-1
 384 320 l 1,19,-1
 448 320 l 1,20,-1
 448 192 l 1,21,-1
 256 192 l 1,22,-1
 256 64 l 1,23,-1
 384 64 l 1,24,-1
 384 0 l 1,25,-1
 64 0 l 1,8,-1
64 320 m 1,26,-1
 64 384 l 1,27,-1
 192 384 l 1,28,-1
 192 320 l 1,29,-1
 64 320 l 1,26,-1
256 320 m 1,30,-1
 256 384 l 1,31,-1
 384 384 l 1,32,-1
 384 320 l 1,33,-1
 256 320 l 1,30,-1
EndSplineSet
EndChar
StartChar: igrave
Encoding: 236 236 175
Width: 448
Flags: W
LayerCount: 2
Back
Fore
SplineSet
192 0 m 1,0,-1
 192 320 l 1,1,-1
 128 320 l 1,2,-1
 128 384 l 1,3,-1
 256 384 l 1,4,-1
 256 0 l 1,5,-1
 192 0 l 1,0,-1
192 448 m 1,6,-1
 192 512 l 1,7,-1
 256 512 l 1,8,-1
 256 448 l 1,9,-1
 192 448 l 1,6,-1
128 512 m 1,10,-1
 128 576 l 1,11,-1
 192 576 l 1,12,-1
 192 512 l 1,13,-1
 128 512 l 1,10,-1
EndSplineSet
EndChar
StartChar: ntilde
Encoding: 241 241 180
Width: 448
Flags: W
LayerCount: 2
Back
Fore
SplineSet
320 0 m 1,0,-1
 320 320 l 1,1,-1
 384 320 l 1,2,-1
 384 0 l 1,3,-1
 320 0 l 1,0,-1
64 0 m 1,4,-1
 64 384 l 1,5,-1
 320 384 l 1,6,-1
 320 320 l 1,7,-1
 128 320 l 1,8,-1
 128 0 l 1,9,-1
 64 0 l 1,4,-1
64 448 m 1,10,-1
 64 512 l 1,11,-1
 128 512 l 1,12,-1
 128 448 l 1,13,-1
 64 448 l 1,10,-1
192 448 m 1,14,-1
 192 512 l 1,15,-1
 256 512 l 1,16,-1
 256 448 l 1,17,-1
 192 448 l 1,14,-1
128 512 m 1,18,-1
 128 576 l 1,19,-1
 192 576 l 1,20,-1
 192 512 l 1,21,-1
 128 512 l 1,18,-1
256 512 m 1,22,-1
 256 576 l 1,23,-1
 320 576 l 1,24,-1
 320 512 l 1,25,-1
 256 512 l 1,22,-1
EndSplineSet
EndChar
StartChar: divide
Encoding: 247 247 186
Width: 448
Flags: W
LayerCount: 2
Back
Fore
SplineSet
192 64 m 1,0,-1
 192 128 l 1,1,-1
 256 128 l 1,2,-1
 256 64 l 1,3,-1
 192 64 l 1,0,-1
64 192 m 1,4,-1
 64 256 l 1,5,-1
 384 256 l 1,6,-1
 384 192 l 1,7,-1
 64 192 l 1,4,-1
192 320 m 1,8,-1
 192 384 l 1,9,-1
 256 384 l 1,10,-1
 256 320 l 1,11,-1
 192 320 l 1,8,-1
EndSplineSet
EndChar
StartChar: uacute
Encoding: 250 250 189
Width: 448
Flags: W
LayerCount: 2
Back
Fore
SplineSet
64 64 m 1,0,-1
 64 384 l 1,1,-1
 128 384 l 1,2,-1
 128 64 l 1,3,-1
 64 64 l 1,0,-1
128 0 m 1,4,-1
 128 64 l 1,5,-1
 320 64 l 1,6,-1
 320 384 l 1,7,-1
 384 384 l 1,8,-1
 384 0 l 1,9,-1
 128 0 l 1,4,-1
192 448 m 1,10,-1
 192 512 l 1,11,-1
 256 512 l 1,12,-1
 256 448 l 1,13,-1
 192 448 l 1,10,-1
256 512 m 1,14,-1
 256 576 l 1,15,-1
 320 576 l 1,16,-1
 320 512 l 1,17,-1
 256 512 l 1,14,-1
EndSplineSet
EndChar
StartChar: ucircumflex
Encoding: 251 251 190
Width: 448
Flags: W
LayerCount: 2
Back
Fore
SplineSet
64 64 m 1,0,-1
 64 384 l 1,1,-1
 128 384 l 1,2,-1
 128 64 l 1,3,-1
 64 64 l 1,0,-1
128 0 m 1,4,-1
 128 64 l 1,5,-1
 320 64 l 1,6,-1
 320 384 l 1,7,-1
 384 384 l 1,8,-1
 384 0 l 1,9,-1
 128 0 l 1,4,-1
128 448 m 1,10,-1
 128 512 l 1,11,-1
 192 512 l 1,12,-1
 192 448 l 1,13,-1
 128 448 l 1,10,-1
256 448 m 1,14,-1
 256 512 l 1,15,-1
 320 512 l 1,16,-1
 320 448 l 1,17,-1
 256 448 l 1,14,-1
192 512 m 1,18,-1
 192 576 l 1,19,-1
 256 576 l 1,20,-1
 256 512 l 1,21,-1
 192 512 l 1,18,-1
EndSplineSet
EndChar
StartChar: ydieresis
Encoding: 255 255 194
Width: 448
Flags: W
LayerCount: 2
Back
Fore
SplineSet
128 -192 m 1,0,-1
 128 -128 l 1,1,-1
 192 -128 l 1,2,-1
 192 -192 l 1,3,-1
 128 -192 l 1,0,-1
192 -128 m 1,4,-1
 192 64 l 1,5,-1
 256 64 l 1,6,-1
 256 -128 l 1,7,-1
 192 -128 l 1,4,-1
128 64 m 1,8,-1
 128 256 l 1,9,-1
 192 256 l 1,10,-1
 192 64 l 1,11,-1
 128 64 l 1,8,-1
256 64 m 1,12,-1
 256 256 l 1,13,-1
 320 256 l 1,14,-1
 320 64 l 1,15,-1
 256 64 l 1,12,-1
64 256 m 1,16,-1
 64 384 l 1,17,-1
 128 384 l 1,18,-1
 128 256 l 1,19,-1
 64 256 l 1,16,-1
320 256 m 1,20,-1
 320 384 l 1,21,-1
 384 384 l 1,22,-1
 384 256 l 1,23,-1
 320 256 l 1,20,-1
128 448 m 1,24,-1
 128 512 l 1,25,-1
 192 512 l 1,26,-1
 192 448 l 1,27,-1
 128 448 l 1,24,-1
256 448 m 1,28,-1
 256 512 l 1,29,-1
 320 512 l 1,30,-1
 320 448 l 1,31,-1
 256 448 l 1,28,-1
EndSplineSet
EndChar
StartChar: Ydieresis
Encoding: 376 376 195
Width: 448
Flags: W
LayerCount: 2
Back
Fore
SplineSet
192 0 m 1,0,-1
 192 256 l 1,1,-1
 256 256 l 1,2,-1
 256 0 l 1,3,-1
 192 0 l 1,0,-1
128 256 m 1,4,-1
 128 320 l 1,5,-1
 192 320 l 1,6,-1
 192 256 l 1,7,-1
 128 256 l 1,4,-1
256 256 m 1,8,-1
 256 320 l 1,9,-1
 320 320 l 1,10,-1
 320 256 l 1,11,-1
 256 256 l 1,8,-1
64 320 m 1,12,-1
 64 384 l 1,13,-1
 128 384 l 1,14,-1
 128 320 l 1,15,-1
 64 320 l 1,12,-1
320 320 m 1,16,-1
 320 384 l 1,17,-1
 384 384 l 1,18,-1
 384 320 l 1,19,-1
 320 320 l 1,16,-1
0 384 m 1,20,-1
 0 512 l 1,21,-1
 64 512 l 1,22,-1
 64 384 l 1,23,-1
 0 384 l 1,20,-1
384 384 m 1,24,-1
 384 512 l 1,25,-1
 448 512 l 1,26,-1
 448 384 l 1,27,-1
 384 384 l 1,24,-1
128 576 m 1,28,-1
 128 640 l 1,29,-1
 192 640 l 1,30,-1
 192 576 l 1,31,-1
 128 576 l 1,28,-1
256 576 m 1,32,-1
 256 640 l 1,33,-1
 320 640 l 1,34,-1
 320 576 l 1,35,-1
 256 576 l 1,32,-1
EndSplineSet
EndChar
StartChar: uni0276
Encoding: 630 630 196
Width: 448
Flags: W
LayerCount: 2
Back
Fore
SplineSet
64 0 m 1,0,-1
 64 64 l 1,1,-1
 192 64 l 1,2,-1
 192 0 l 1,3,-1
 64 0 l 1,0,-1
256 0 m 1,4,-1
 256 64 l 1,5,-1
 448 64 l 1,6,-1
 448 0 l 1,7,-1
 256 0 l 1,4,-1
0 64 m 1,8,-1
 0 448 l 1,9,-1
 64 448 l 1,10,-1
 64 64 l 1,11,-1
 0 64 l 1,8,-1
192 64 m 1,12,-1
 192 448 l 1,13,-1
 256 448 l 1,14,-1
 256 320 l 1,15,-1
 384 320 l 1,16,-1
 384 256 l 1,17,-1
 256 256 l 1,18,-1
 256 64 l 1,19,-1
 192 64 l 1,12,-1
64 448 m 1,20,-1
 64 512 l 1,21,-1
 192 512 l 1,22,-1
 192 448 l 1,23,-1
 64 448 l 1,20,-1
256 448 m 1,24,-1
 256 512 l 1,25,-1
 448 512 l 1,26,-1
 448 448 l 1,27,-1
 256 448 l 1,24,-1
EndSplineSet
EndChar
StartChar: uni0375
Encoding: 885 885 198
Width: 448
Flags: W
LayerCount: 2
Back
Fore
SplineSet
64 -128 m 1,0,-1
 64 -64 l 1,1,-1
 128 -64 l 1,2,-1
 128 -128 l 1,3,-1
 64 -128 l 1,0,-1
128 -64 m 1,4,-1
 128 128 l 1,5,-1
 192 128 l 1,6,-1
 192 -64 l 1,7,-1
 128 -64 l 1,4,-1
EndSplineSet
EndChar
StartChar: uni037A
Encoding: 890 890 199
Width: 448
Flags: W
LayerCount: 2
Back
Fore
SplineSet
192 -192 m 1,0,-1
 192 -128 l 1,1,-1
 256 -128 l 1,2,-1
 256 -192 l 1,3,-1
 192 -192 l 1,0,-1
128 -128 m 1,4,-1
 128 0 l 1,5,-1
 192 0 l 1,6,-1
 192 -128 l 1,7,-1
 128 -128 l 1,4,-1
EndSplineSet
EndChar
StartChar: anoteleia
Encoding: 903 903 204
Width: 448
Flags: W
LayerCount: 2
Back
Fore
SplineSet
128 256 m 1,0,-1
 128 384 l 1,1,-1
 256 384 l 1,2,-1
 256 256 l 1,3,-1
 128 256 l 1,0,-1
EndSplineSet
EndChar
StartChar: Epsilontonos
Encoding: 904 904 205
Width: 448
Flags: W
LayerCount: 2
Back
Fore
SplineSet
64 0 m 1,0,-1
 64 512 l 1,1,-1
 384 512 l 1,2,-1
 384 448 l 1,3,-1
 128 448 l 1,4,-1
 128 320 l 1,5,-1
 320 320 l 1,6,-1
 320 256 l 1,7,-1
 128 256 l 1,8,-1
 128 64 l 1,9,-1
 384 64 l 1,10,-1
 384 0 l 1,11,-1
 64 0 l 1,0,-1
0 576 m 1,12,-1
 0 704 l 1,13,-1
 64 704 l 1,14,-1
 64 576 l 1,15,-1
 0 576 l 1,12,-1
EndSplineSet
EndChar
StartChar: Iotatonos
Encoding: 906 906 207
Width: 448
Flags: W
LayerCount: 2
Back
Fore
SplineSet
128 0 m 1,0,-1
 128 64 l 1,1,-1
 192 64 l 1,2,-1
 192 448 l 1,3,-1
 128 448 l 1,4,-1
 128 512 l 1,5,-1
 320 512 l 1,6,-1
 320 448 l 1,7,-1
 256 448 l 1,8,-1
 256 64 l 1,9,-1
 320 64 l 1,10,-1
 320 0 l 1,11,-1
 128 0 l 1,0,-1
0 576 m 1,12,-1
 0 704 l 1,13,-1
 64 704 l 1,14,-1
 64 576 l 1,15,-1
 0 576 l 1,12,-1
EndSplineSet
EndChar
StartChar: iotadieresistonos
Encoding: 912 912 211
Width: 448
Flags: W
LayerCount: 2
Back
Fore
SplineSet
256 0 m 1,0,-1
 256 64 l 1,1,-1
 320 64 l 1,2,-1
 320 0 l 1,3,-1
 256 0 l 1,0,-1
192 64 m 1,4,-1
 192 320 l 1,5,-1
 128 320 l 1,6,-1
 128 384 l 1,7,-1
 256 384 l 1,8,-1
 256 64 l 1,9,-1
 192 64 l 1,4,-1
64 448 m 1,10,-1
 64 512 l 1,11,-1
 128 512 l 1,12,-1
 128 448 l 1,13,-1
 64 448 l 1,10,-1
192 448 m 1,14,-1
 192 512 l 1,15,-1
 256 512 l 1,16,-1
 256 448 l 1,17,-1
 192 448 l 1,14,-1
320 448 m 1,18,-1
 320 512 l 1,19,-1
 384 512 l 1,20,-1
 384 448 l 1,21,-1
 320 448 l 1,18,-1
256 512 m 1,22,-1
 256 576 l 1,23,-1
 320 576 l 1,24,-1
 320 512 l 1,25,-1
 256 512 l 1,22,-1
EndSplineSet
EndChar
StartChar: Zeta
Encoding: 918 918 217
Width: 448
Flags: W
LayerCount: 2
Back
Fore
SplineSet
64 0 m 1,0,-1
 64 128 l 1,1,-1
 128 128 l 1,2,-1
 128 64 l 1,3,-1
 448 64 l 1,4,-1
 448 0 l 1,5,-1
 64 0 l 1,0,-1
128 128 m 1,6,-1
 128 192 l 1,7,-1
 192 192 l 1,8,-1
 192 128 l 1,9,-1
 128 128 l 1,6,-1
192 192 m 1,10,-1
 192 256 l 1,11,-1
 256 256 l 1,12,-1
 256 192 l 1,13,-1
 192 192 l 1,10,-1
256 256 m 1,14,-1
 256 320 l 1,15,-1
 320 320 l 1,16,-1
 320 256 l 1,17,-1
 256 256 l 1,14,-1
320 320 m 1,18,-1
 320 384 l 1,19,-1
 384 384 l 1,20,-1
 384 320 l 1,21,-1
 320 320 l 1,18,-1
384 384 m 1,22,-1
 384 448 l 1,23,-1
 64 448 l 1,24,-1
 64 512 l 1,25,-1
 448 512 l 1,26,-1
 448 384 l 1,27,-1
 384 384 l 1,22,-1
EndSplineSet
EndChar
StartChar: Nu
Encoding: 925 925 224
Width: 448
Flags: W
LayerCount: 2
Back
Fore
SplineSet
256 128 m 1,0,-1
 256 256 l 1,1,-1
 320 256 l 1,2,-1
 320 128 l 1,3,-1
 256 128 l 1,0,-1
192 256 m 1,4,-1
 192 384 l 1,5,-1
 256 384 l 1,6,-1
 256 256 l 1,7,-1
 192 256 l 1,4,-1
64 0 m 1,8,-1
 64 512 l 1,9,-1
 192 512 l 1,10,-1
 192 384 l 1,11,-1
 128 384 l 1,12,-1
 128 0 l 1,13,-1
 64 0 l 1,8,-1
320 0 m 1,14,-1
 320 128 l 1,15,-1
 384 128 l 1,16,-1
 384 512 l 1,17,-1
 448 512 l 1,18,-1
 448 0 l 1,19,-1
 320 0 l 1,14,-1
EndSplineSet
EndChar
StartChar: Xi
Encoding: 926 926 225
Width: 448
Flags: W
LayerCount: 2
Back
Fore
SplineSet
64 0 m 1,0,-1
 64 64 l 1,1,-1
 448 64 l 1,2,-1
 448 0 l 1,3,-1
 64 0 l 1,0,-1
128 256 m 1,4,-1
 128 320 l 1,5,-1
 384 320 l 1,6,-1
 384 256 l 1,7,-1
 128 256 l 1,4,-1
64 448 m 1,8,-1
 64 512 l 1,9,-1
 448 512 l 1,10,-1
 448 448 l 1,11,-1
 64 448 l 1,8,-1
EndSplineSet
EndChar
StartChar: Rho
Encoding: 929 929 228
Width: 448
Flags: W
LayerCount: 2
Back
Fore
SplineSet
320 256 m 1,0,-1
 320 448 l 1,1,-1
 384 448 l 1,2,-1
 384 256 l 1,3,-1
 320 256 l 1,0,-1
64 0 m 1,4,-1
 64 512 l 1,5,-1
 320 512 l 1,6,-1
 320 448 l 1,7,-1
 128 448 l 1,8,-1
 128 256 l 1,9,-1
 320 256 l 1,10,-1
 320 192 l 1,11,-1
 128 192 l 1,12,-1
 128 0 l 1,13,-1
 64 0 l 1,4,-1
EndSplineSet
EndChar
StartChar: Psi
Encoding: 936 936 234
Width: 448
Flags: W
LayerCount: 2
Back
Fore
SplineSet
0 192 m 1,0,-1
 0 512 l 1,1,-1
 64 512 l 1,2,-1
 64 192 l 1,3,-1
 0 192 l 1,0,-1
192 0 m 1,4,-1
 192 128 l 1,5,-1
 64 128 l 1,6,-1
 64 192 l 1,7,-1
 192 192 l 1,8,-1
 192 512 l 1,9,-1
 256 512 l 1,10,-1
 256 192 l 1,11,-1
 384 192 l 1,12,-1
 384 128 l 1,13,-1
 256 128 l 1,14,-1
 256 0 l 1,15,-1
 192 0 l 1,4,-1
384 192 m 1,16,-1
 384 512 l 1,17,-1
 448 512 l 1,18,-1
 448 192 l 1,19,-1
 384 192 l 1,16,-1
EndSplineSet
EndChar
StartChar: uni03A9
Encoding: 937 937 235
Width: 448
Flags: W
LayerCount: 2
Back
Fore
SplineSet
64 0 m 1,0,-1
 64 64 l 1,1,-1
 128 64 l 1,2,-1
 128 128 l 1,3,-1
 192 128 l 1,4,-1
 192 0 l 1,5,-1
 64 0 l 1,0,-1
320 0 m 1,6,-1
 320 128 l 1,7,-1
 384 128 l 1,8,-1
 384 64 l 1,9,-1
 448 64 l 1,10,-1
 448 0 l 1,11,-1
 320 0 l 1,6,-1
64 128 m 1,12,-1
 64 384 l 1,13,-1
 128 384 l 1,14,-1
 128 128 l 1,15,-1
 64 128 l 1,12,-1
384 128 m 1,16,-1
 384 384 l 1,17,-1
 448 384 l 1,18,-1
 448 128 l 1,19,-1
 384 128 l 1,16,-1
128 384 m 1,20,-1
 128 448 l 1,21,-1
 192 448 l 1,22,-1
 192 384 l 1,23,-1
 128 384 l 1,20,-1
320 384 m 1,24,-1
 320 448 l 1,25,-1
 384 448 l 1,26,-1
 384 384 l 1,27,-1
 320 384 l 1,24,-1
192 448 m 1,28,-1
 192 512 l 1,29,-1
 320 512 l 1,30,-1
 320 448 l 1,31,-1
 192 448 l 1,28,-1
EndSplineSet
EndChar
StartChar: Iotadieresis
Encoding: 938 938 236
Width: 448
Flags: W
LayerCount: 2
Back
Fore
SplineSet
128 0 m 1,0,-1
 128 64 l 1,1,-1
 192 64 l 1,2,-1
 192 384 l 1,3,-1
 128 384 l 1,4,-1
 128 448 l 1,5,-1
 320 448 l 1,6,-1
 320 384 l 1,7,-1
 256 384 l 1,8,-1
 256 64 l 1,9,-1
 320 64 l 1,10,-1
 320 0 l 1,11,-1
 128 0 l 1,0,-1
128 512 m 1,12,-1
 128 576 l 1,13,-1
 192 576 l 1,14,-1
 192 512 l 1,15,-1
 128 512 l 1,12,-1
256 512 m 1,16,-1
 256 576 l 1,17,-1
 320 576 l 1,18,-1
 320 512 l 1,19,-1
 256 512 l 1,16,-1
EndSplineSet
EndChar
StartChar: alphatonos
Encoding: 940 940 238
Width: 448
Flags: W
LayerCount: 2
Back
Fore
SplineSet
128 0 m 1,0,-1
 128 64 l 1,1,-1
 320 64 l 1,2,-1
 320 0 l 1,3,-1
 128 0 l 1,0,-1
384 0 m 1,4,-1
 384 64 l 1,5,-1
 448 64 l 1,6,-1
 448 0 l 1,7,-1
 384 0 l 1,4,-1
64 64 m 1,8,-1
 64 320 l 1,9,-1
 128 320 l 1,10,-1
 128 64 l 1,11,-1
 64 64 l 1,8,-1
320 64 m 1,12,-1
 320 320 l 1,13,-1
 384 320 l 1,14,-1
 384 64 l 1,15,-1
 320 64 l 1,12,-1
128 320 m 1,16,-1
 128 384 l 1,17,-1
 320 384 l 1,18,-1
 320 320 l 1,19,-1
 128 320 l 1,16,-1
384 320 m 1,20,-1
 384 384 l 1,21,-1
 448 384 l 1,22,-1
 448 320 l 1,23,-1
 384 320 l 1,20,-1
192 448 m 1,24,-1
 192 512 l 1,25,-1
 256 512 l 1,26,-1
 256 448 l 1,27,-1
 192 448 l 1,24,-1
256 512 m 1,28,-1
 256 576 l 1,29,-1
 320 576 l 1,30,-1
 320 512 l 1,31,-1
 256 512 l 1,28,-1
EndSplineSet
EndChar
StartChar: etatonos
Encoding: 942 942 240
Width: 448
Flags: W
LayerCount: 2
Back
Fore
SplineSet
320 -192 m 1,0,-1
 320 320 l 1,1,-1
 384 320 l 1,2,-1
 384 -192 l 1,3,-1
 320 -192 l 1,0,-1
64 0 m 1,4,-1
 64 384 l 1,5,-1
 128 384 l 1,6,-1
 128 320 l 1,7,-1
 192 320 l 1,8,-1
 192 256 l 1,9,-1
 128 256 l 1,10,-1
 128 0 l 1,11,-1
 64 0 l 1,4,-1
192 320 m 1,12,-1
 192 384 l 1,13,-1
 320 384 l 1,14,-1
 320 320 l 1,15,-1
 192 320 l 1,12,-1
192 448 m 1,16,-1
 192 512 l 1,17,-1
 256 512 l 1,18,-1
 256 448 l 1,19,-1
 192 448 l 1,16,-1
256 512 m 1,20,-1
 256 576 l 1,21,-1
 320 576 l 1,22,-1
 320 512 l 1,23,-1
 256 512 l 1,20,-1
EndSplineSet
EndChar
StartChar: alpha
Encoding: 945 945 243
Width: 448
Flags: W
LayerCount: 2
Back
Fore
SplineSet
128 0 m 1,0,-1
 128 64 l 1,1,-1
 320 64 l 1,2,-1
 320 0 l 1,3,-1
 128 0 l 1,0,-1
384 0 m 1,4,-1
 384 64 l 1,5,-1
 448 64 l 1,6,-1
 448 0 l 1,7,-1
 384 0 l 1,4,-1
64 64 m 1,8,-1
 64 320 l 1,9,-1
 128 320 l 1,10,-1
 128 64 l 1,11,-1
 64 64 l 1,8,-1
320 64 m 1,12,-1
 320 320 l 1,13,-1
 384 320 l 1,14,-1
 384 64 l 1,15,-1
 320 64 l 1,12,-1
128 320 m 1,16,-1
 128 384 l 1,17,-1
 320 384 l 1,18,-1
 320 320 l 1,19,-1
 128 320 l 1,16,-1
384 320 m 1,20,-1
 384 384 l 1,21,-1
 448 384 l 1,22,-1
 448 320 l 1,23,-1
 384 320 l 1,20,-1
EndSplineSet
EndChar
StartChar: beta
Encoding: 946 946 244
Width: 448
Flags: W
LayerCount: 2
Back
Fore
SplineSet
320 64 m 1,0,-1
 320 256 l 1,1,-1
 384 256 l 1,2,-1
 384 64 l 1,3,-1
 320 64 l 1,0,-1
256 256 m 1,4,-1
 256 320 l 1,5,-1
 320 320 l 1,6,-1
 320 256 l 1,7,-1
 256 256 l 1,4,-1
64 -128 m 1,8,-1
 64 512 l 1,9,-1
 128 512 l 1,10,-1
 128 384 l 1,11,-1
 256 384 l 1,12,-1
 256 320 l 1,13,-1
 128 320 l 1,14,-1
 128 64 l 1,15,-1
 320 64 l 1,16,-1
 320 0 l 1,17,-1
 128 0 l 1,18,-1
 128 -128 l 1,19,-1
 64 -128 l 1,8,-1
256 384 m 1,20,-1
 256 512 l 1,21,-1
 320 512 l 1,22,-1
 320 384 l 1,23,-1
 256 384 l 1,20,-1
128 512 m 1,24,-1
 128 576 l 1,25,-1
 256 576 l 1,26,-1
 256 512 l 1,27,-1
 128 512 l 1,24,-1
EndSplineSet
EndChar
StartChar: gamma
Encoding: 947 947 245
Width: 448
Flags: W
LayerCount: 2
Back
Fore
SplineSet
192 -192 m 1,0,-1
 192 0 l 1,1,-1
 128 0 l 1,2,-1
 128 192 l 1,3,-1
 192 192 l 1,4,-1
 192 64 l 1,5,-1
 320 64 l 1,6,-1
 320 0 l 1,7,-1
 256 0 l 1,8,-1
 256 -192 l 1,9,-1
 192 -192 l 1,0,-1
64 192 m 1,10,-1
 64 384 l 1,11,-1
 128 384 l 1,12,-1
 128 192 l 1,13,-1
 64 192 l 1,10,-1
320 64 m 1,14,-1
 320 384 l 1,15,-1
 384 384 l 1,16,-1
 384 64 l 1,17,-1
 320 64 l 1,14,-1
EndSplineSet
EndChar
StartChar: zeta
Encoding: 950 950 248
Width: 448
Flags: W
LayerCount: 2
Back
Fore
SplineSet
256 -192 m 1,0,-1
 256 -128 l 1,1,-1
 320 -128 l 1,2,-1
 320 -192 l 1,3,-1
 256 -192 l 1,0,-1
320 -128 m 1,4,-1
 320 0 l 1,5,-1
 192 0 l 1,6,-1
 192 64 l 1,7,-1
 384 64 l 1,8,-1
 384 -128 l 1,9,-1
 320 -128 l 1,4,-1
128 64 m 1,10,-1
 128 128 l 1,11,-1
 192 128 l 1,12,-1
 192 64 l 1,13,-1
 128 64 l 1,10,-1
64 128 m 1,14,-1
 64 320 l 1,15,-1
 128 320 l 1,16,-1
 128 128 l 1,17,-1
 64 128 l 1,14,-1
128 320 m 1,18,-1
 128 384 l 1,19,-1
 192 384 l 1,20,-1
 192 320 l 1,21,-1
 128 320 l 1,18,-1
192 384 m 1,22,-1
 192 448 l 1,23,-1
 256 448 l 1,24,-1
 256 384 l 1,25,-1
 192 384 l 1,22,-1
256 448 m 1,26,-1
 256 512 l 1,27,-1
 64 512 l 1,28,-1
 64 576 l 1,29,-1
 384 576 l 1,30,-1
 384 512 l 1,31,-1
 320 512 l 1,32,-1
 320 448 l 1,33,-1
 256 448 l 1,26,-1
EndSplineSet
EndChar
StartChar: iota
Encoding: 953 953 251
Width: 448
Flags: W
LayerCount: 2
Back
Fore
SplineSet
256 0 m 1,0,-1
 256 64 l 1,1,-1
 320 64 l 1,2,-1
 320 0 l 1,3,-1
 256 0 l 1,0,-1
192 64 m 1,4,-1
 192 320 l 1,5,-1
 128 320 l 1,6,-1
 128 384 l 1,7,-1
 256 384 l 1,8,-1
 256 64 l 1,9,-1
 192 64 l 1,4,-1
EndSplineSet
EndChar
StartChar: lambda
Encoding: 955 955 253
Width: 448
Flags: W
LayerCount: 2
Back
Fore
SplineSet
64 0 m 1,0,-1
 64 128 l 1,1,-1
 128 128 l 1,2,-1
 128 0 l 1,3,-1
 64 0 l 1,0,-1
320 0 m 1,4,-1
 320 128 l 1,5,-1
 384 128 l 1,6,-1
 384 0 l 1,7,-1
 320 0 l 1,4,-1
128 128 m 1,8,-1
 128 320 l 1,9,-1
 192 320 l 1,10,-1
 192 512 l 1,11,-1
 256 512 l 1,12,-1
 256 320 l 1,13,-1
 320 320 l 1,14,-1
 320 128 l 1,15,-1
 256 128 l 1,16,-1
 256 256 l 1,17,-1
 192 256 l 1,18,-1
 192 128 l 1,19,-1
 128 128 l 1,8,-1
64 512 m 1,20,-1
 64 576 l 1,21,-1
 192 576 l 1,22,-1
 192 512 l 1,23,-1
 64 512 l 1,20,-1
EndSplineSet
EndChar
StartChar: nu
Encoding: 957 957 255
Width: 448
Flags: W
LayerCount: 2
Back
Fore
SplineSet
192 0 m 1,0,-1
 192 128 l 1,1,-1
 256 128 l 1,2,-1
 256 0 l 1,3,-1
 192 0 l 1,0,-1
128 128 m 1,4,-1
 128 256 l 1,5,-1
 192 256 l 1,6,-1
 192 128 l 1,7,-1
 128 128 l 1,4,-1
256 128 m 1,8,-1
 256 256 l 1,9,-1
 320 256 l 1,10,-1
 320 128 l 1,11,-1
 256 128 l 1,8,-1
64 256 m 1,12,-1
 64 384 l 1,13,-1
 128 384 l 1,14,-1
 128 256 l 1,15,-1
 64 256 l 1,12,-1
320 256 m 1,16,-1
 320 384 l 1,17,-1
 384 384 l 1,18,-1
 384 256 l 1,19,-1
 320 256 l 1,16,-1
EndSplineSet
EndChar
StartChar: xi
Encoding: 958 958 256
Width: 448
Flags: W
LayerCount: 2
Back
Fore
SplineSet
256 -192 m 1,0,-1
 256 -128 l 1,1,-1
 320 -128 l 1,2,-1
 320 -192 l 1,3,-1
 256 -192 l 1,0,-1
320 -128 m 1,4,-1
 320 0 l 1,5,-1
 192 0 l 1,6,-1
 192 64 l 1,7,-1
 384 64 l 1,8,-1
 384 -128 l 1,9,-1
 320 -128 l 1,4,-1
128 64 m 1,10,-1
 128 256 l 1,11,-1
 192 256 l 1,12,-1
 192 64 l 1,13,-1
 128 64 l 1,10,-1
192 256 m 1,14,-1
 192 384 l 1,15,-1
 384 384 l 1,16,-1
 384 320 l 1,17,-1
 256 320 l 1,18,-1
 256 256 l 1,19,-1
 192 256 l 1,14,-1
128 384 m 1,20,-1
 128 512 l 1,21,-1
 192 512 l 1,22,-1
 192 384 l 1,23,-1
 128 384 l 1,20,-1
192 512 m 1,24,-1
 192 576 l 1,25,-1
 384 576 l 1,26,-1
 384 512 l 1,27,-1
 192 512 l 1,24,-1
EndSplineSet
EndChar
StartChar: tau
Encoding: 964 964 262
Width: 448
Flags: W
LayerCount: 2
Back
Fore
SplineSet
256 0 m 1,0,-1
 256 64 l 1,1,-1
 384 64 l 1,2,-1
 384 0 l 1,3,-1
 256 0 l 1,0,-1
192 64 m 1,4,-1
 192 320 l 1,5,-1
 64 320 l 1,6,-1
 64 384 l 1,7,-1
 384 384 l 1,8,-1
 384 320 l 1,9,-1
 256 320 l 1,10,-1
 256 64 l 1,11,-1
 192 64 l 1,4,-1
EndSplineSet
EndChar
StartChar: upsilon
Encoding: 965 965 263
Width: 448
Flags: W
LayerCount: 2
Back
Fore
SplineSet
128 0 m 1,0,-1
 128 64 l 1,1,-1
 320 64 l 1,2,-1
 320 0 l 1,3,-1
 128 0 l 1,0,-1
64 64 m 1,4,-1
 64 384 l 1,5,-1
 128 384 l 1,6,-1
 128 64 l 1,7,-1
 64 64 l 1,4,-1
320 64 m 1,8,-1
 320 384 l 1,9,-1
 384 384 l 1,10,-1
 384 64 l 1,11,-1
 320 64 l 1,8,-1
EndSplineSet
EndChar
StartChar: phi
Encoding: 966 966 264
Width: 448
Flags: W
LayerCount: 2
Back
Fore
SplineSet
0 64 m 1,0,-1
 0 320 l 1,1,-1
 64 320 l 1,2,-1
 64 64 l 1,3,-1
 0 64 l 1,0,-1
384 64 m 1,4,-1
 384 320 l 1,5,-1
 448 320 l 1,6,-1
 448 64 l 1,7,-1
 384 64 l 1,4,-1
64 320 m 1,8,-1
 64 384 l 1,9,-1
 128 384 l 1,10,-1
 128 320 l 1,11,-1
 64 320 l 1,8,-1
192 -192 m 1,12,-1
 192 0 l 1,13,-1
 64 0 l 1,14,-1
 64 64 l 1,15,-1
 192 64 l 1,16,-1
 192 384 l 1,17,-1
 384 384 l 1,18,-1
 384 320 l 1,19,-1
 256 320 l 1,20,-1
 256 64 l 1,21,-1
 384 64 l 1,22,-1
 384 0 l 1,23,-1
 256 0 l 1,24,-1
 256 -192 l 1,25,-1
 192 -192 l 1,12,-1
EndSplineSet
EndChar
StartChar: psi
Encoding: 968 968 266
Width: 448
Flags: W
LayerCount: 2
Back
Fore
SplineSet
0 64 m 1,0,-1
 0 384 l 1,1,-1
 64 384 l 1,2,-1
 64 64 l 1,3,-1
 0 64 l 1,0,-1
384 64 m 1,4,-1
 384 384 l 1,5,-1
 448 384 l 1,6,-1
 448 64 l 1,7,-1
 384 64 l 1,4,-1
192 -192 m 1,8,-1
 192 0 l 1,9,-1
 64 0 l 1,10,-1
 64 64 l 1,11,-1
 192 64 l 1,12,-1
 192 512 l 1,13,-1
 256 512 l 1,14,-1
 256 64 l 1,15,-1
 384 64 l 1,16,-1
 384 0 l 1,17,-1
 256 0 l 1,18,-1
 256 -192 l 1,19,-1
 192 -192 l 1,8,-1
EndSplineSet
EndChar
StartChar: uni03F1
Encoding: 1009 1009 276
Width: 448
Flags: W
LayerCount: 2
Back
Fore
SplineSet
384 -256 m 1,0,-1
 384 -192 l 1,1,-1
 448 -192 l 1,2,-1
 448 -256 l 1,3,-1
 384 -256 l 1,0,-1
192 -192 m 1,4,-1
 192 -128 l 1,5,-1
 384 -128 l 1,6,-1
 384 -192 l 1,7,-1
 192 -192 l 1,4,-1
128 -128 m 1,8,-1
 128 320 l 1,9,-1
 192 320 l 1,10,-1
 192 64 l 1,11,-1
 384 64 l 1,12,-1
 384 0 l 1,13,-1
 192 0 l 1,14,-1
 192 -128 l 1,15,-1
 128 -128 l 1,8,-1
384 64 m 1,16,-1
 384 320 l 1,17,-1
 448 320 l 1,18,-1
 448 64 l 1,19,-1
 384 64 l 1,16,-1
192 320 m 1,20,-1
 192 384 l 1,21,-1
 384 384 l 1,22,-1
 384 320 l 1,23,-1
 192 320 l 1,20,-1
EndSplineSet
EndChar
StartChar: uni03F4
Encoding: 1012 1012 277
Width: 448
Flags: W
LayerCount: 2
Back
Fore
SplineSet
192 0 m 1,0,-1
 192 64 l 1,1,-1
 320 64 l 1,2,-1
 320 0 l 1,3,-1
 192 0 l 1,0,-1
128 64 m 1,4,-1
 128 128 l 1,5,-1
 192 128 l 1,6,-1
 192 64 l 1,7,-1
 128 64 l 1,4,-1
320 64 m 1,8,-1
 320 128 l 1,9,-1
 384 128 l 1,10,-1
 384 64 l 1,11,-1
 320 64 l 1,8,-1
64 128 m 1,12,-1
 64 384 l 1,13,-1
 128 384 l 1,14,-1
 128 320 l 1,15,-1
 384 320 l 1,16,-1
 384 384 l 1,17,-1
 448 384 l 1,18,-1
 448 128 l 1,19,-1
 384 128 l 1,20,-1
 384 256 l 1,21,-1
 128 256 l 1,22,-1
 128 128 l 1,23,-1
 64 128 l 1,12,-1
128 384 m 1,24,-1
 128 448 l 1,25,-1
 192 448 l 1,26,-1
 192 384 l 1,27,-1
 128 384 l 1,24,-1
320 384 m 1,28,-1
 320 448 l 1,29,-1
 384 448 l 1,30,-1
 384 384 l 1,31,-1
 320 384 l 1,28,-1
192 448 m 1,32,-1
 192 512 l 1,33,-1
 320 512 l 1,34,-1
 320 448 l 1,35,-1
 192 448 l 1,32,-1
EndSplineSet
EndChar
StartChar: uni0402
Encoding: 1026 1026 280
Width: 448
Flags: W
LayerCount: 2
Back
Fore
SplineSet
256 0 m 1,0,-1
 256 64 l 1,1,-1
 384 64 l 1,2,-1
 384 0 l 1,3,-1
 256 0 l 1,0,-1
128 0 m 1,4,-1
 128 448 l 1,5,-1
 0 448 l 1,6,-1
 0 512 l 1,7,-1
 384 512 l 1,8,-1
 384 448 l 1,9,-1
 192 448 l 1,10,-1
 192 320 l 1,11,-1
 448 320 l 1,12,-1
 448 64 l 1,13,-1
 384 64 l 1,14,-1
 384 256 l 1,15,-1
 192 256 l 1,16,-1
 192 0 l 1,17,-1
 128 0 l 1,4,-1
EndSplineSet
EndChar
StartChar: uni0403
Encoding: 1027 1027 281
Width: 448
Flags: W
LayerCount: 2
Back
Fore
SplineSet
64 0 m 1,0,-1
 64 512 l 1,1,-1
 448 512 l 1,2,-1
 448 448 l 1,3,-1
 128 448 l 1,4,-1
 128 0 l 1,5,-1
 64 0 l 1,0,-1
192 576 m 1,6,-1
 192 640 l 1,7,-1
 256 640 l 1,8,-1
 256 576 l 1,9,-1
 192 576 l 1,6,-1
256 640 m 1,10,-1
 256 704 l 1,11,-1
 320 704 l 1,12,-1
 320 640 l 1,13,-1
 256 640 l 1,10,-1
EndSplineSet
EndChar
StartChar: uni0408
Encoding: 1032 1032 286
Width: 448
Flags: W
LayerCount: 2
Back
Fore
SplineSet
64 0 m 1,0,-1
 64 64 l 1,1,-1
 256 64 l 1,2,-1
 256 0 l 1,3,-1
 64 0 l 1,0,-1
256 64 m 1,4,-1
 256 448 l 1,5,-1
 192 448 l 1,6,-1
 192 512 l 1,7,-1
 320 512 l 1,8,-1
 320 64 l 1,9,-1
 256 64 l 1,4,-1
EndSplineSet
EndChar
StartChar: uni040B
Encoding: 1035 1035 289
Width: 448
Flags: W
LayerCount: 2
Back
Fore
SplineSet
384 0 m 1,0,-1
 384 256 l 1,1,-1
 448 256 l 1,2,-1
 448 0 l 1,3,-1
 384 0 l 1,0,-1
256 256 m 1,4,-1
 256 320 l 1,5,-1
 384 320 l 1,6,-1
 384 256 l 1,7,-1
 256 256 l 1,4,-1
128 0 m 1,8,-1
 128 448 l 1,9,-1
 0 448 l 1,10,-1
 0 512 l 1,11,-1
 320 512 l 1,12,-1
 320 448 l 1,13,-1
 192 448 l 1,14,-1
 192 256 l 1,15,-1
 256 256 l 1,16,-1
 256 192 l 1,17,-1
 192 192 l 1,18,-1
 192 0 l 1,19,-1
 128 0 l 1,8,-1
EndSplineSet
EndChar
StartChar: uni040D
Encoding: 1037 1037 291
Width: 448
Flags: W
LayerCount: 2
Back
Fore
SplineSet
192 128 m 1,0,-1
 192 256 l 1,1,-1
 256 256 l 1,2,-1
 256 128 l 1,3,-1
 192 128 l 1,0,-1
256 256 m 1,4,-1
 256 384 l 1,5,-1
 320 384 l 1,6,-1
 320 256 l 1,7,-1
 256 256 l 1,4,-1
64 0 m 1,8,-1
 64 512 l 1,9,-1
 128 512 l 1,10,-1
 128 128 l 1,11,-1
 192 128 l 1,12,-1
 192 0 l 1,13,-1
 64 0 l 1,8,-1
384 0 m 1,14,-1
 384 384 l 1,15,-1
 320 384 l 1,16,-1
 320 512 l 1,17,-1
 448 512 l 1,18,-1
 448 0 l 1,19,-1
 384 0 l 1,14,-1
256 576 m 1,20,-1
 256 640 l 1,21,-1
 384 640 l 1,22,-1
 384 576 l 1,23,-1
 256 576 l 1,20,-1
128 640 m 1,24,-1
 128 704 l 1,25,-1
 256 704 l 1,26,-1
 256 640 l 1,27,-1
 128 640 l 1,24,-1
EndSplineSet
EndChar
StartChar: uni040E
Encoding: 1038 1038 292
Width: 448
Flags: W
LayerCount: 2
Back
Fore
SplineSet
128 0 m 1,0,-1
 128 64 l 1,1,-1
 192 64 l 1,2,-1
 192 0 l 1,3,-1
 128 0 l 1,0,-1
192 64 m 1,4,-1
 192 256 l 1,5,-1
 320 256 l 1,6,-1
 320 192 l 1,7,-1
 256 192 l 1,8,-1
 256 64 l 1,9,-1
 192 64 l 1,4,-1
128 256 m 1,10,-1
 128 384 l 1,11,-1
 192 384 l 1,12,-1
 192 256 l 1,13,-1
 128 256 l 1,10,-1
320 256 m 1,14,-1
 320 384 l 1,15,-1
 384 384 l 1,16,-1
 384 256 l 1,17,-1
 320 256 l 1,14,-1
64 384 m 1,18,-1
 64 512 l 1,19,-1
 128 512 l 1,20,-1
 128 384 l 1,21,-1
 64 384 l 1,18,-1
384 384 m 1,22,-1
 384 512 l 1,23,-1
 448 512 l 1,24,-1
 448 384 l 1,25,-1
 384 384 l 1,22,-1
192 576 m 1,26,-1
 192 640 l 1,27,-1
 320 640 l 1,28,-1
 320 576 l 1,29,-1
 192 576 l 1,26,-1
128 640 m 1,30,-1
 128 704 l 1,31,-1
 192 704 l 1,32,-1
 192 640 l 1,33,-1
 128 640 l 1,30,-1
320 640 m 1,34,-1
 320 704 l 1,35,-1
 384 704 l 1,36,-1
 384 640 l 1,37,-1
 320 640 l 1,34,-1
EndSplineSet
EndChar
StartChar: uni040F
Encoding: 1039 1039 293
Width: 448
Flags: W
LayerCount: 2
Back
Fore
SplineSet
256 -128 m 1,0,-1
 256 0 l 1,1,-1
 64 0 l 1,2,-1
 64 512 l 1,3,-1
 128 512 l 1,4,-1
 128 64 l 1,5,-1
 384 64 l 1,6,-1
 384 512 l 1,7,-1
 448 512 l 1,8,-1
 448 0 l 1,9,-1
 320 0 l 1,10,-1
 320 -128 l 1,11,-1
 256 -128 l 1,0,-1
EndSplineSet
EndChar
StartChar: uni0411
Encoding: 1041 1041 295
Width: 448
Flags: W
LayerCount: 2
Back
Fore
SplineSet
384 64 m 1,0,-1
 384 256 l 1,1,-1
 448 256 l 1,2,-1
 448 64 l 1,3,-1
 384 64 l 1,0,-1
64 0 m 1,4,-1
 64 512 l 1,5,-1
 384 512 l 1,6,-1
 384 448 l 1,7,-1
 128 448 l 1,8,-1
 128 320 l 1,9,-1
 384 320 l 1,10,-1
 384 256 l 1,11,-1
 128 256 l 1,12,-1
 128 64 l 1,13,-1
 384 64 l 1,14,-1
 384 0 l 1,15,-1
 64 0 l 1,4,-1
EndSplineSet
EndChar
StartChar: uni0412
Encoding: 1042 1042 296
Width: 448
Flags: W
LayerCount: 2
Back
Fore
SplineSet
384 64 m 1,0,-1
 384 256 l 1,1,-1
 448 256 l 1,2,-1
 448 64 l 1,3,-1
 384 64 l 1,0,-1
64 0 m 1,4,-1
 64 512 l 1,5,-1
 320 512 l 1,6,-1
 320 448 l 1,7,-1
 128 448 l 1,8,-1
 128 320 l 1,9,-1
 320 320 l 1,10,-1
 320 448 l 1,11,-1
 384 448 l 1,12,-1
 384 256 l 1,13,-1
 128 256 l 1,14,-1
 128 64 l 1,15,-1
 384 64 l 1,16,-1
 384 0 l 1,17,-1
 64 0 l 1,4,-1
EndSplineSet
EndChar
StartChar: uni0413
Encoding: 1043 1043 297
Width: 448
Flags: W
LayerCount: 2
Back
Fore
SplineSet
64 0 m 1,0,-1
 64 512 l 1,1,-1
 448 512 l 1,2,-1
 448 448 l 1,3,-1
 128 448 l 1,4,-1
 128 0 l 1,5,-1
 64 0 l 1,0,-1
EndSplineSet
EndChar
StartChar: uni0414
Encoding: 1044 1044 298
Width: 448
Flags: W
LayerCount: 2
Back
Fore
SplineSet
64 128 m 1,0,-1
 64 448 l 1,1,-1
 128 448 l 1,2,-1
 128 128 l 1,3,-1
 64 128 l 1,0,-1
0 -128 m 1,4,-1
 0 128 l 1,5,-1
 64 128 l 1,6,-1
 64 64 l 1,7,-1
 320 64 l 1,8,-1
 320 448 l 1,9,-1
 128 448 l 1,10,-1
 128 512 l 1,11,-1
 384 512 l 1,12,-1
 384 64 l 1,13,-1
 448 64 l 1,14,-1
 448 -128 l 1,15,-1
 384 -128 l 1,16,-1
 384 0 l 1,17,-1
 64 0 l 1,18,-1
 64 -128 l 1,19,-1
 0 -128 l 1,4,-1
EndSplineSet
EndChar
StartChar: uni0416
Encoding: 1046 1046 300
Width: 448
Flags: W
LayerCount: 2
Back
Fore
SplineSet
0 0 m 1,0,-1
 0 128 l 1,1,-1
 64 128 l 1,2,-1
 64 0 l 1,3,-1
 0 0 l 1,0,-1
384 0 m 1,4,-1
 384 128 l 1,5,-1
 448 128 l 1,6,-1
 448 0 l 1,7,-1
 384 0 l 1,4,-1
64 128 m 1,8,-1
 64 192 l 1,9,-1
 128 192 l 1,10,-1
 128 128 l 1,11,-1
 64 128 l 1,8,-1
320 128 m 1,12,-1
 320 192 l 1,13,-1
 384 192 l 1,14,-1
 384 128 l 1,15,-1
 320 128 l 1,12,-1
64 320 m 1,16,-1
 64 384 l 1,17,-1
 128 384 l 1,18,-1
 128 320 l 1,19,-1
 64 320 l 1,16,-1
320 320 m 1,20,-1
 320 384 l 1,21,-1
 384 384 l 1,22,-1
 384 320 l 1,23,-1
 320 320 l 1,20,-1
0 384 m 1,24,-1
 0 512 l 1,25,-1
 64 512 l 1,26,-1
 64 384 l 1,27,-1
 0 384 l 1,24,-1
192 0 m 1,28,-1
 192 192 l 1,29,-1
 128 192 l 1,30,-1
 128 320 l 1,31,-1
 192 320 l 1,32,-1
 192 512 l 1,33,-1
 256 512 l 1,34,-1
 256 320 l 1,35,-1
 320 320 l 1,36,-1
 320 192 l 1,37,-1
 256 192 l 1,38,-1
 256 0 l 1,39,-1
 192 0 l 1,28,-1
384 384 m 1,40,-1
 384 512 l 1,41,-1
 448 512 l 1,42,-1
 448 384 l 1,43,-1
 384 384 l 1,40,-1
EndSplineSet
EndChar
StartChar: uni0417
Encoding: 1047 1047 301
Width: 448
Flags: W
LayerCount: 2
Back
Fore
SplineSet
128 0 m 1,0,-1
 128 64 l 1,1,-1
 320 64 l 1,2,-1
 320 0 l 1,3,-1
 128 0 l 1,0,-1
64 64 m 1,4,-1
 64 128 l 1,5,-1
 128 128 l 1,6,-1
 128 64 l 1,7,-1
 64 64 l 1,4,-1
320 64 m 1,8,-1
 320 256 l 1,9,-1
 384 256 l 1,10,-1
 384 64 l 1,11,-1
 320 64 l 1,8,-1
192 256 m 1,12,-1
 192 320 l 1,13,-1
 320 320 l 1,14,-1
 320 256 l 1,15,-1
 192 256 l 1,12,-1
64 384 m 1,16,-1
 64 448 l 1,17,-1
 128 448 l 1,18,-1
 128 384 l 1,19,-1
 64 384 l 1,16,-1
320 320 m 1,20,-1
 320 448 l 1,21,-1
 384 448 l 1,22,-1
 384 320 l 1,23,-1
 320 320 l 1,20,-1
128 448 m 1,24,-1
 128 512 l 1,25,-1
 320 512 l 1,26,-1
 320 448 l 1,27,-1
 128 448 l 1,24,-1
EndSplineSet
EndChar
StartChar: uni041B
Encoding: 1051 1051 305
Width: 448
Flags: W
LayerCount: 2
Back
Fore
SplineSet
64 0 m 1,0,-1
 64 64 l 1,1,-1
 128 64 l 1,2,-1
 128 0 l 1,3,-1
 64 0 l 1,0,-1
128 64 m 1,4,-1
 128 448 l 1,5,-1
 192 448 l 1,6,-1
 192 64 l 1,7,-1
 128 64 l 1,4,-1
384 0 m 1,8,-1
 384 448 l 1,9,-1
 192 448 l 1,10,-1
 192 512 l 1,11,-1
 448 512 l 1,12,-1
 448 0 l 1,13,-1
 384 0 l 1,8,-1
EndSplineSet
EndChar
StartChar: uni041C
Encoding: 1052 1052 306
Width: 448
Flags: W
LayerCount: 2
Back
Fore
SplineSet
192 128 m 1,0,-1
 192 256 l 1,1,-1
 256 256 l 1,2,-1
 256 128 l 1,3,-1
 192 128 l 1,0,-1
128 256 m 1,4,-1
 128 384 l 1,5,-1
 192 384 l 1,6,-1
 192 256 l 1,7,-1
 128 256 l 1,4,-1
256 256 m 1,8,-1
 256 384 l 1,9,-1
 320 384 l 1,10,-1
 320 256 l 1,11,-1
 256 256 l 1,8,-1
0 0 m 1,12,-1
 0 512 l 1,13,-1
 128 512 l 1,14,-1
 128 384 l 1,15,-1
 64 384 l 1,16,-1
 64 0 l 1,17,-1
 0 0 l 1,12,-1
384 0 m 1,18,-1
 384 384 l 1,19,-1
 320 384 l 1,20,-1
 320 512 l 1,21,-1
 448 512 l 1,22,-1
 448 0 l 1,23,-1
 384 0 l 1,18,-1
EndSplineSet
EndChar
StartChar: uni041F
Encoding: 1055 1055 309
Width: 448
Flags: W
LayerCount: 2
Back
Fore
SplineSet
64 0 m 1,0,-1
 64 512 l 1,1,-1
 448 512 l 1,2,-1
 448 0 l 1,3,-1
 384 0 l 1,4,-1
 384 448 l 1,5,-1
 128 448 l 1,6,-1
 128 0 l 1,7,-1
 64 0 l 1,0,-1
EndSplineSet
EndChar
StartChar: uni0422
Encoding: 1058 1058 312
Width: 448
Flags: W
LayerCount: 2
Back
Fore
SplineSet
192 0 m 1,0,-1
 192 448 l 1,1,-1
 0 448 l 1,2,-1
 0 512 l 1,3,-1
 448 512 l 1,4,-1
 448 448 l 1,5,-1
 256 448 l 1,6,-1
 256 0 l 1,7,-1
 192 0 l 1,0,-1
EndSplineSet
EndChar
StartChar: uni0423
Encoding: 1059 1059 313
Width: 448
Flags: W
LayerCount: 2
Back
Fore
SplineSet
128 0 m 1,0,-1
 128 64 l 1,1,-1
 192 64 l 1,2,-1
 192 0 l 1,3,-1
 128 0 l 1,0,-1
192 64 m 1,4,-1
 192 256 l 1,5,-1
 320 256 l 1,6,-1
 320 192 l 1,7,-1
 256 192 l 1,8,-1
 256 64 l 1,9,-1
 192 64 l 1,4,-1
128 256 m 1,10,-1
 128 384 l 1,11,-1
 192 384 l 1,12,-1
 192 256 l 1,13,-1
 128 256 l 1,10,-1
320 256 m 1,14,-1
 320 384 l 1,15,-1
 384 384 l 1,16,-1
 384 256 l 1,17,-1
 320 256 l 1,14,-1
64 384 m 1,18,-1
 64 512 l 1,19,-1
 128 512 l 1,20,-1
 128 384 l 1,21,-1
 64 384 l 1,18,-1
384 384 m 1,22,-1
 384 512 l 1,23,-1
 448 512 l 1,24,-1
 448 384 l 1,25,-1
 384 384 l 1,22,-1
EndSplineSet
EndChar
StartChar: uni0424
Encoding: 1060 1060 314
Width: 448
Flags: W
LayerCount: 2
Back
Fore
SplineSet
0 192 m 1,0,-1
 0 384 l 1,1,-1
 64 384 l 1,2,-1
 64 192 l 1,3,-1
 0 192 l 1,0,-1
384 192 m 1,4,-1
 384 384 l 1,5,-1
 448 384 l 1,6,-1
 448 192 l 1,7,-1
 384 192 l 1,4,-1
192 0 m 1,8,-1
 192 128 l 1,9,-1
 64 128 l 1,10,-1
 64 192 l 1,11,-1
 192 192 l 1,12,-1
 192 384 l 1,13,-1
 64 384 l 1,14,-1
 64 448 l 1,15,-1
 192 448 l 1,16,-1
 192 512 l 1,17,-1
 256 512 l 1,18,-1
 256 448 l 1,19,-1
 384 448 l 1,20,-1
 384 384 l 1,21,-1
 256 384 l 1,22,-1
 256 192 l 1,23,-1
 384 192 l 1,24,-1
 384 128 l 1,25,-1
 256 128 l 1,26,-1
 256 0 l 1,27,-1
 192 0 l 1,8,-1
EndSplineSet
EndChar
StartChar: uni0426
Encoding: 1062 1062 316
Width: 448
Flags: W
LayerCount: 2
Back
Fore
SplineSet
384 -128 m 1,0,-1
 384 0 l 1,1,-1
 448 0 l 1,2,-1
 448 -128 l 1,3,-1
 384 -128 l 1,0,-1
64 0 m 1,4,-1
 64 512 l 1,5,-1
 128 512 l 1,6,-1
 128 64 l 1,7,-1
 320 64 l 1,8,-1
 320 512 l 1,9,-1
 384 512 l 1,10,-1
 384 0 l 1,11,-1
 64 0 l 1,4,-1
EndSplineSet
EndChar
StartChar: uni0427
Encoding: 1063 1063 317
Width: 448
Flags: W
LayerCount: 2
Back
Fore
SplineSet
64 192 m 1,0,-1
 64 512 l 1,1,-1
 128 512 l 1,2,-1
 128 192 l 1,3,-1
 64 192 l 1,0,-1
384 0 m 1,4,-1
 384 128 l 1,5,-1
 128 128 l 1,6,-1
 128 192 l 1,7,-1
 384 192 l 1,8,-1
 384 512 l 1,9,-1
 448 512 l 1,10,-1
 448 0 l 1,11,-1
 384 0 l 1,4,-1
EndSplineSet
EndChar
StartChar: uni0428
Encoding: 1064 1064 318
Width: 448
Flags: W
LayerCount: 2
Back
Fore
SplineSet
64 0 m 1,0,-1
 64 512 l 1,1,-1
 128 512 l 1,2,-1
 128 64 l 1,3,-1
 192 64 l 1,4,-1
 192 512 l 1,5,-1
 256 512 l 1,6,-1
 256 64 l 1,7,-1
 320 64 l 1,8,-1
 320 512 l 1,9,-1
 384 512 l 1,10,-1
 384 0 l 1,11,-1
 64 0 l 1,0,-1
EndSplineSet
EndChar
StartChar: uni0429
Encoding: 1065 1065 319
Width: 448
Flags: W
LayerCount: 2
Back
Fore
SplineSet
384 -128 m 1,0,-1
 384 0 l 1,1,-1
 64 0 l 1,2,-1
 64 512 l 1,3,-1
 128 512 l 1,4,-1
 128 64 l 1,5,-1
 192 64 l 1,6,-1
 192 512 l 1,7,-1
 256 512 l 1,8,-1
 256 64 l 1,9,-1
 320 64 l 1,10,-1
 320 512 l 1,11,-1
 384 512 l 1,12,-1
 384 64 l 1,13,-1
 448 64 l 1,14,-1
 448 -128 l 1,15,-1
 384 -128 l 1,0,-1
EndSplineSet
EndChar
StartChar: uni042B
Encoding: 1067 1067 321
Width: 448
Flags: W
LayerCount: 2
Back
Fore
SplineSet
256 64 m 1,0,-1
 256 256 l 1,1,-1
 320 256 l 1,2,-1
 320 64 l 1,3,-1
 256 64 l 1,0,-1
64 0 m 1,4,-1
 64 512 l 1,5,-1
 128 512 l 1,6,-1
 128 320 l 1,7,-1
 256 320 l 1,8,-1
 256 256 l 1,9,-1
 128 256 l 1,10,-1
 128 64 l 1,11,-1
 256 64 l 1,12,-1
 256 0 l 1,13,-1
 64 0 l 1,4,-1
384 0 m 1,14,-1
 384 512 l 1,15,-1
 448 512 l 1,16,-1
 448 0 l 1,17,-1
 384 0 l 1,14,-1
EndSplineSet
EndChar
StartChar: uni042C
Encoding: 1068 1068 322
Width: 448
Flags: W
LayerCount: 2
Back
Fore
SplineSet
256 64 m 1,0,-1
 256 256 l 1,1,-1
 320 256 l 1,2,-1
 320 64 l 1,3,-1
 256 64 l 1,0,-1
64 0 m 1,4,-1
 64 512 l 1,5,-1
 128 512 l 1,6,-1
 128 320 l 1,7,-1
 256 320 l 1,8,-1
 256 256 l 1,9,-1
 128 256 l 1,10,-1
 128 64 l 1,11,-1
 256 64 l 1,12,-1
 256 0 l 1,13,-1
 64 0 l 1,4,-1
EndSplineSet
EndChar
StartChar: uni042D
Encoding: 1069 1069 323
Width: 448
Flags: W
LayerCount: 2
Back
Fore
SplineSet
128 0 m 1,0,-1
 128 64 l 1,1,-1
 320 64 l 1,2,-1
 320 0 l 1,3,-1
 128 0 l 1,0,-1
64 64 m 1,4,-1
 64 128 l 1,5,-1
 128 128 l 1,6,-1
 128 64 l 1,7,-1
 64 64 l 1,4,-1
320 64 m 1,8,-1
 320 128 l 1,9,-1
 384 128 l 1,10,-1
 384 64 l 1,11,-1
 320 64 l 1,8,-1
384 128 m 1,12,-1
 384 256 l 1,13,-1
 192 256 l 1,14,-1
 192 320 l 1,15,-1
 384 320 l 1,16,-1
 384 384 l 1,17,-1
 448 384 l 1,18,-1
 448 128 l 1,19,-1
 384 128 l 1,12,-1
64 384 m 1,20,-1
 64 448 l 1,21,-1
 128 448 l 1,22,-1
 128 384 l 1,23,-1
 64 384 l 1,20,-1
320 384 m 1,24,-1
 320 448 l 1,25,-1
 384 448 l 1,26,-1
 384 384 l 1,27,-1
 320 384 l 1,24,-1
128 448 m 1,28,-1
 128 512 l 1,29,-1
 320 512 l 1,30,-1
 320 448 l 1,31,-1
 128 448 l 1,28,-1
EndSplineSet
EndChar
StartChar: uni042E
Encoding: 1070 1070 324
Width: 448
Flags: W
LayerCount: 2
Back
Fore
SplineSet
256 0 m 1,0,-1
 256 64 l 1,1,-1
 384 64 l 1,2,-1
 384 0 l 1,3,-1
 256 0 l 1,0,-1
384 64 m 1,4,-1
 384 448 l 1,5,-1
 448 448 l 1,6,-1
 448 64 l 1,7,-1
 384 64 l 1,4,-1
64 0 m 1,8,-1
 64 512 l 1,9,-1
 128 512 l 1,10,-1
 128 320 l 1,11,-1
 192 320 l 1,12,-1
 192 448 l 1,13,-1
 256 448 l 1,14,-1
 256 64 l 1,15,-1
 192 64 l 1,16,-1
 192 256 l 1,17,-1
 128 256 l 1,18,-1
 128 0 l 1,19,-1
 64 0 l 1,8,-1
256 448 m 1,20,-1
 256 512 l 1,21,-1
 384 512 l 1,22,-1
 384 448 l 1,23,-1
 256 448 l 1,20,-1
EndSplineSet
EndChar
StartChar: uni042F
Encoding: 1071 1071 325
Width: 448
Flags: W
LayerCount: 2
Back
Fore
SplineSet
64 0 m 1,0,-1
 64 64 l 1,1,-1
 128 64 l 1,2,-1
 128 0 l 1,3,-1
 64 0 l 1,0,-1
128 64 m 1,4,-1
 128 128 l 1,5,-1
 192 128 l 1,6,-1
 192 64 l 1,7,-1
 128 64 l 1,4,-1
128 256 m 1,8,-1
 128 448 l 1,9,-1
 192 448 l 1,10,-1
 192 256 l 1,11,-1
 128 256 l 1,8,-1
384 0 m 1,12,-1
 384 192 l 1,13,-1
 256 192 l 1,14,-1
 256 128 l 1,15,-1
 192 128 l 1,16,-1
 192 256 l 1,17,-1
 384 256 l 1,18,-1
 384 448 l 1,19,-1
 192 448 l 1,20,-1
 192 512 l 1,21,-1
 448 512 l 1,22,-1
 448 0 l 1,23,-1
 384 0 l 1,12,-1
EndSplineSet
EndChar
StartChar: uni0432
Encoding: 1074 1074 328
Width: 448
Flags: W
LayerCount: 2
Back
Fore
SplineSet
320 64 m 1,0,-1
 320 192 l 1,1,-1
 384 192 l 1,2,-1
 384 64 l 1,3,-1
 320 64 l 1,0,-1
320 256 m 1,4,-1
 320 320 l 1,5,-1
 384 320 l 1,6,-1
 384 256 l 1,7,-1
 320 256 l 1,4,-1
64 0 m 1,8,-1
 64 384 l 1,9,-1
 320 384 l 1,10,-1
 320 320 l 1,11,-1
 128 320 l 1,12,-1
 128 256 l 1,13,-1
 320 256 l 1,14,-1
 320 192 l 1,15,-1
 128 192 l 1,16,-1
 128 64 l 1,17,-1
 320 64 l 1,18,-1
 320 0 l 1,19,-1
 64 0 l 1,8,-1
EndSplineSet
EndChar
StartChar: uni0433
Encoding: 1075 1075 329
Width: 448
Flags: W
LayerCount: 2
Back
Fore
SplineSet
64 0 m 1,0,-1
 64 384 l 1,1,-1
 384 384 l 1,2,-1
 384 320 l 1,3,-1
 128 320 l 1,4,-1
 128 0 l 1,5,-1
 64 0 l 1,0,-1
EndSplineSet
EndChar
StartChar: uni0434
Encoding: 1076 1076 330
Width: 448
Flags: W
LayerCount: 2
Back
Fore
SplineSet
0 -128 m 1,0,-1
 0 64 l 1,1,-1
 64 64 l 1,2,-1
 64 320 l 1,3,-1
 128 320 l 1,4,-1
 128 64 l 1,5,-1
 320 64 l 1,6,-1
 320 320 l 1,7,-1
 128 320 l 1,8,-1
 128 384 l 1,9,-1
 384 384 l 1,10,-1
 384 64 l 1,11,-1
 448 64 l 1,12,-1
 448 -128 l 1,13,-1
 384 -128 l 1,14,-1
 384 0 l 1,15,-1
 64 0 l 1,16,-1
 64 -128 l 1,17,-1
 0 -128 l 1,0,-1
EndSplineSet
EndChar
StartChar: uni0439
Encoding: 1081 1081 335
Width: 448
Flags: W
LayerCount: 2
Back
Fore
SplineSet
192 128 m 1,0,-1
 192 256 l 1,1,-1
 256 256 l 1,2,-1
 256 128 l 1,3,-1
 192 128 l 1,0,-1
64 0 m 1,4,-1
 64 384 l 1,5,-1
 128 384 l 1,6,-1
 128 128 l 1,7,-1
 192 128 l 1,8,-1
 192 64 l 1,9,-1
 128 64 l 1,10,-1
 128 0 l 1,11,-1
 64 0 l 1,4,-1
320 0 m 1,12,-1
 320 256 l 1,13,-1
 256 256 l 1,14,-1
 256 320 l 1,15,-1
 320 320 l 1,16,-1
 320 384 l 1,17,-1
 384 384 l 1,18,-1
 384 0 l 1,19,-1
 320 0 l 1,12,-1
192 384 m 1,20,-1
 192 448 l 1,21,-1
 256 448 l 1,22,-1
 256 384 l 1,23,-1
 192 384 l 1,20,-1
128 448 m 1,24,-1
 128 512 l 1,25,-1
 192 512 l 1,26,-1
 192 448 l 1,27,-1
 128 448 l 1,24,-1
256 448 m 1,28,-1
 256 512 l 1,29,-1
 320 512 l 1,30,-1
 320 448 l 1,31,-1
 256 448 l 1,28,-1
EndSplineSet
EndChar
StartChar: uni043B
Encoding: 1083 1083 337
Width: 448
Flags: W
LayerCount: 2
Back
Fore
SplineSet
64 0 m 1,0,-1
 64 64 l 1,1,-1
 128 64 l 1,2,-1
 128 0 l 1,3,-1
 64 0 l 1,0,-1
320 0 m 1,4,-1
 320 320 l 1,5,-1
 192 320 l 1,6,-1
 192 64 l 1,7,-1
 128 64 l 1,8,-1
 128 384 l 1,9,-1
 384 384 l 1,10,-1
 384 0 l 1,11,-1
 320 0 l 1,4,-1
EndSplineSet
EndChar
StartChar: uni043D
Encoding: 1085 1085 339
Width: 448
Flags: W
LayerCount: 2
Back
Fore
SplineSet
64 0 m 1,0,-1
 64 384 l 1,1,-1
 128 384 l 1,2,-1
 128 256 l 1,3,-1
 320 256 l 1,4,-1
 320 384 l 1,5,-1
 384 384 l 1,6,-1
 384 0 l 1,7,-1
 320 0 l 1,8,-1
 320 192 l 1,9,-1
 128 192 l 1,10,-1
 128 0 l 1,11,-1
 64 0 l 1,0,-1
EndSplineSet
EndChar
StartChar: uni043E
Encoding: 1086 1086 340
Width: 448
Flags: W
LayerCount: 2
Back
Fore
SplineSet
128 0 m 1,0,-1
 128 64 l 1,1,-1
 320 64 l 1,2,-1
 320 0 l 1,3,-1
 128 0 l 1,0,-1
64 64 m 1,4,-1
 64 320 l 1,5,-1
 128 320 l 1,6,-1
 128 64 l 1,7,-1
 64 64 l 1,4,-1
320 64 m 1,8,-1
 320 320 l 1,9,-1
 384 320 l 1,10,-1
 384 64 l 1,11,-1
 320 64 l 1,8,-1
128 320 m 1,12,-1
 128 384 l 1,13,-1
 320 384 l 1,14,-1
 320 320 l 1,15,-1
 128 320 l 1,12,-1
EndSplineSet
EndChar
StartChar: uni043F
Encoding: 1087 1087 341
Width: 448
Flags: W
LayerCount: 2
Back
Fore
SplineSet
64 0 m 1,0,-1
 64 384 l 1,1,-1
 384 384 l 1,2,-1
 384 0 l 1,3,-1
 320 0 l 1,4,-1
 320 320 l 1,5,-1
 128 320 l 1,6,-1
 128 0 l 1,7,-1
 64 0 l 1,0,-1
EndSplineSet
EndChar
StartChar: uni0441
Encoding: 1089 1089 343
Width: 448
Flags: W
LayerCount: 2
Back
Fore
SplineSet
128 0 m 1,0,-1
 128 64 l 1,1,-1
 320 64 l 1,2,-1
 320 0 l 1,3,-1
 128 0 l 1,0,-1
320 64 m 1,4,-1
 320 128 l 1,5,-1
 384 128 l 1,6,-1
 384 64 l 1,7,-1
 320 64 l 1,4,-1
64 64 m 1,8,-1
 64 320 l 1,9,-1
 128 320 l 1,10,-1
 128 64 l 1,11,-1
 64 64 l 1,8,-1
320 256 m 1,12,-1
 320 320 l 1,13,-1
 384 320 l 1,14,-1
 384 256 l 1,15,-1
 320 256 l 1,12,-1
128 320 m 1,16,-1
 128 384 l 1,17,-1
 320 384 l 1,18,-1
 320 320 l 1,19,-1
 128 320 l 1,16,-1
EndSplineSet
EndChar
StartChar: uni0442
Encoding: 1090 1090 344
Width: 448
Flags: W
LayerCount: 2
Back
Fore
SplineSet
192 0 m 1,0,-1
 192 320 l 1,1,-1
 64 320 l 1,2,-1
 64 384 l 1,3,-1
 384 384 l 1,4,-1
 384 320 l 1,5,-1
 256 320 l 1,6,-1
 256 0 l 1,7,-1
 192 0 l 1,0,-1
EndSplineSet
EndChar
StartChar: uni0443
Encoding: 1091 1091 345
Width: 448
Flags: W
LayerCount: 2
Back
Fore
SplineSet
128 -192 m 1,0,-1
 128 -128 l 1,1,-1
 192 -128 l 1,2,-1
 192 -192 l 1,3,-1
 128 -192 l 1,0,-1
192 -128 m 1,4,-1
 192 64 l 1,5,-1
 256 64 l 1,6,-1
 256 -128 l 1,7,-1
 192 -128 l 1,4,-1
128 64 m 1,8,-1
 128 256 l 1,9,-1
 192 256 l 1,10,-1
 192 64 l 1,11,-1
 128 64 l 1,8,-1
256 64 m 1,12,-1
 256 256 l 1,13,-1
 320 256 l 1,14,-1
 320 64 l 1,15,-1
 256 64 l 1,12,-1
64 256 m 1,16,-1
 64 384 l 1,17,-1
 128 384 l 1,18,-1
 128 256 l 1,19,-1
 64 256 l 1,16,-1
320 256 m 1,20,-1
 320 384 l 1,21,-1
 384 384 l 1,22,-1
 384 256 l 1,23,-1
 320 256 l 1,20,-1
EndSplineSet
EndChar
StartChar: uni0444
Encoding: 1092 1092 346
Width: 448
Flags: W
LayerCount: 2
Back
Fore
SplineSet
0 64 m 1,0,-1
 0 320 l 1,1,-1
 64 320 l 1,2,-1
 64 64 l 1,3,-1
 0 64 l 1,0,-1
384 64 m 1,4,-1
 384 320 l 1,5,-1
 448 320 l 1,6,-1
 448 64 l 1,7,-1
 384 64 l 1,4,-1
192 -192 m 1,8,-1
 192 0 l 1,9,-1
 64 0 l 1,10,-1
 64 64 l 1,11,-1
 192 64 l 1,12,-1
 192 320 l 1,13,-1
 64 320 l 1,14,-1
 64 384 l 1,15,-1
 192 384 l 1,16,-1
 192 512 l 1,17,-1
 256 512 l 1,18,-1
 256 384 l 1,19,-1
 384 384 l 1,20,-1
 384 320 l 1,21,-1
 256 320 l 1,22,-1
 256 64 l 1,23,-1
 384 64 l 1,24,-1
 384 0 l 1,25,-1
 256 0 l 1,26,-1
 256 -192 l 1,27,-1
 192 -192 l 1,8,-1
EndSplineSet
EndChar
StartChar: uni0445
Encoding: 1093 1093 347
Width: 448
Flags: W
LayerCount: 2
Back
Fore
SplineSet
64 0 m 1,0,-1
 64 64 l 1,1,-1
 128 64 l 1,2,-1
 128 0 l 1,3,-1
 64 0 l 1,0,-1
320 0 m 1,4,-1
 320 64 l 1,5,-1
 384 64 l 1,6,-1
 384 0 l 1,7,-1
 320 0 l 1,4,-1
128 64 m 1,8,-1
 128 128 l 1,9,-1
 192 128 l 1,10,-1
 192 64 l 1,11,-1
 128 64 l 1,8,-1
256 64 m 1,12,-1
 256 128 l 1,13,-1
 320 128 l 1,14,-1
 320 64 l 1,15,-1
 256 64 l 1,12,-1
192 128 m 1,16,-1
 192 256 l 1,17,-1
 256 256 l 1,18,-1
 256 128 l 1,19,-1
 192 128 l 1,16,-1
128 256 m 1,20,-1
 128 320 l 1,21,-1
 192 320 l 1,22,-1
 192 256 l 1,23,-1
 128 256 l 1,20,-1
256 256 m 1,24,-1
 256 320 l 1,25,-1
 320 320 l 1,26,-1
 320 256 l 1,27,-1
 256 256 l 1,24,-1
64 320 m 1,28,-1
 64 384 l 1,29,-1
 128 384 l 1,30,-1
 128 320 l 1,31,-1
 64 320 l 1,28,-1
320 320 m 1,32,-1
 320 384 l 1,33,-1
 384 384 l 1,34,-1
 384 320 l 1,35,-1
 320 320 l 1,32,-1
EndSplineSet
EndChar
StartChar: uni0446
Encoding: 1094 1094 348
Width: 448
Flags: W
LayerCount: 2
Back
Fore
SplineSet
384 -128 m 1,0,-1
 384 0 l 1,1,-1
 64 0 l 1,2,-1
 64 384 l 1,3,-1
 128 384 l 1,4,-1
 128 64 l 1,5,-1
 320 64 l 1,6,-1
 320 384 l 1,7,-1
 384 384 l 1,8,-1
 384 64 l 1,9,-1
 448 64 l 1,10,-1
 448 -128 l 1,11,-1
 384 -128 l 1,0,-1
EndSplineSet
EndChar
StartChar: uni0447
Encoding: 1095 1095 349
Width: 448
Flags: W
LayerCount: 2
Back
Fore
SplineSet
64 192 m 1,0,-1
 64 384 l 1,1,-1
 128 384 l 1,2,-1
 128 192 l 1,3,-1
 64 192 l 1,0,-1
320 0 m 1,4,-1
 320 128 l 1,5,-1
 128 128 l 1,6,-1
 128 192 l 1,7,-1
 320 192 l 1,8,-1
 320 384 l 1,9,-1
 384 384 l 1,10,-1
 384 0 l 1,11,-1
 320 0 l 1,4,-1
EndSplineSet
EndChar
StartChar: uni0449
Encoding: 1097 1097 351
Width: 448
Flags: W
LayerCount: 2
Back
Fore
SplineSet
384 -128 m 1,0,-1
 384 0 l 1,1,-1
 64 0 l 1,2,-1
 64 384 l 1,3,-1
 128 384 l 1,4,-1
 128 64 l 1,5,-1
 192 64 l 1,6,-1
 192 384 l 1,7,-1
 256 384 l 1,8,-1
 256 64 l 1,9,-1
 320 64 l 1,10,-1
 320 384 l 1,11,-1
 384 384 l 1,12,-1
 384 64 l 1,13,-1
 448 64 l 1,14,-1
 448 -128 l 1,15,-1
 384 -128 l 1,0,-1
EndSplineSet
EndChar
StartChar: uni044A
Encoding: 1098 1098 352
Width: 448
Flags: W
LayerCount: 2
Back
Fore
SplineSet
320 64 m 1,0,-1
 320 192 l 1,1,-1
 384 192 l 1,2,-1
 384 64 l 1,3,-1
 320 64 l 1,0,-1
128 0 m 1,4,-1
 128 320 l 1,5,-1
 0 320 l 1,6,-1
 0 384 l 1,7,-1
 192 384 l 1,8,-1
 192 256 l 1,9,-1
 320 256 l 1,10,-1
 320 192 l 1,11,-1
 192 192 l 1,12,-1
 192 64 l 1,13,-1
 320 64 l 1,14,-1
 320 0 l 1,15,-1
 128 0 l 1,4,-1
EndSplineSet
EndChar
StartChar: uni044B
Encoding: 1099 1099 353
Width: 448
Flags: W
LayerCount: 2
Back
Fore
SplineSet
256 64 m 1,0,-1
 256 192 l 1,1,-1
 320 192 l 1,2,-1
 320 64 l 1,3,-1
 256 64 l 1,0,-1
64 0 m 1,4,-1
 64 384 l 1,5,-1
 128 384 l 1,6,-1
 128 256 l 1,7,-1
 256 256 l 1,8,-1
 256 192 l 1,9,-1
 128 192 l 1,10,-1
 128 64 l 1,11,-1
 256 64 l 1,12,-1
 256 0 l 1,13,-1
 64 0 l 1,4,-1
384 0 m 1,14,-1
 384 384 l 1,15,-1
 448 384 l 1,16,-1
 448 0 l 1,17,-1
 384 0 l 1,14,-1
EndSplineSet
EndChar
StartChar: uni044C
Encoding: 1100 1100 354
Width: 448
Flags: W
LayerCount: 2
Back
Fore
SplineSet
320 64 m 1,0,-1
 320 192 l 1,1,-1
 384 192 l 1,2,-1
 384 64 l 1,3,-1
 320 64 l 1,0,-1
128 0 m 1,4,-1
 128 384 l 1,5,-1
 192 384 l 1,6,-1
 192 256 l 1,7,-1
 320 256 l 1,8,-1
 320 192 l 1,9,-1
 192 192 l 1,10,-1
 192 64 l 1,11,-1
 320 64 l 1,12,-1
 320 0 l 1,13,-1
 128 0 l 1,4,-1
EndSplineSet
EndChar
StartChar: uni044F
Encoding: 1103 1103 357
Width: 448
Flags: W
LayerCount: 2
Back
Fore
SplineSet
64 0 m 1,0,-1
 64 64 l 1,1,-1
 128 64 l 1,2,-1
 128 0 l 1,3,-1
 64 0 l 1,0,-1
64 192 m 1,4,-1
 64 320 l 1,5,-1
 128 320 l 1,6,-1
 128 192 l 1,7,-1
 64 192 l 1,4,-1
320 0 m 1,8,-1
 320 128 l 1,9,-1
 192 128 l 1,10,-1
 192 64 l 1,11,-1
 128 64 l 1,12,-1
 128 192 l 1,13,-1
 320 192 l 1,14,-1
 320 320 l 1,15,-1
 128 320 l 1,16,-1
 128 384 l 1,17,-1
 384 384 l 1,18,-1
 384 0 l 1,19,-1
 320 0 l 1,8,-1
EndSplineSet
EndChar
StartChar: uni0452
Encoding: 1106 1106 360
Width: 448
Flags: W
LayerCount: 2
Back
Fore
SplineSet
320 -192 m 1,0,-1
 320 -128 l 1,1,-1
 384 -128 l 1,2,-1
 384 -192 l 1,3,-1
 320 -192 l 1,0,-1
384 -128 m 1,4,-1
 384 320 l 1,5,-1
 448 320 l 1,6,-1
 448 -128 l 1,7,-1
 384 -128 l 1,4,-1
128 0 m 1,8,-1
 128 448 l 1,9,-1
 64 448 l 1,10,-1
 64 512 l 1,11,-1
 128 512 l 1,12,-1
 128 576 l 1,13,-1
 192 576 l 1,14,-1
 192 512 l 1,15,-1
 320 512 l 1,16,-1
 320 448 l 1,17,-1
 192 448 l 1,18,-1
 192 384 l 1,19,-1
 384 384 l 1,20,-1
 384 320 l 1,21,-1
 192 320 l 1,22,-1
 192 0 l 1,23,-1
 128 0 l 1,8,-1
EndSplineSet
EndChar
StartChar: uni0458
Encoding: 1112 1112 365
Width: 448
Flags: W
LayerCount: 2
Back
Fore
SplineSet
64 -128 m 1,0,-1
 64 -64 l 1,1,-1
 256 -64 l 1,2,-1
 256 -128 l 1,3,-1
 64 -128 l 1,0,-1
256 -64 m 1,4,-1
 256 320 l 1,5,-1
 192 320 l 1,6,-1
 192 384 l 1,7,-1
 320 384 l 1,8,-1
 320 -64 l 1,9,-1
 256 -64 l 1,4,-1
256 512 m 1,10,-1
 256 576 l 1,11,-1
 320 576 l 1,12,-1
 320 512 l 1,13,-1
 256 512 l 1,10,-1
EndSplineSet
EndChar
StartChar: uni0459
Encoding: 1113 1113 366
Width: 448
Flags: W
LayerCount: 2
Back
Fore
SplineSet
0 0 m 1,0,-1
 0 64 l 1,1,-1
 64 64 l 1,2,-1
 64 0 l 1,3,-1
 0 0 l 1,0,-1
384 64 m 1,4,-1
 384 192 l 1,5,-1
 448 192 l 1,6,-1
 448 64 l 1,7,-1
 384 64 l 1,4,-1
256 0 m 1,8,-1
 256 320 l 1,9,-1
 128 320 l 1,10,-1
 128 64 l 1,11,-1
 64 64 l 1,12,-1
 64 384 l 1,13,-1
 320 384 l 1,14,-1
 320 256 l 1,15,-1
 384 256 l 1,16,-1
 384 192 l 1,17,-1
 320 192 l 1,18,-1
 320 64 l 1,19,-1
 384 64 l 1,20,-1
 384 0 l 1,21,-1
 256 0 l 1,8,-1
EndSplineSet
EndChar
StartChar: uni045A
Encoding: 1114 1114 367
Width: 448
Flags: W
LayerCount: 2
Back
Fore
SplineSet
384 64 m 1,0,-1
 384 192 l 1,1,-1
 448 192 l 1,2,-1
 448 64 l 1,3,-1
 384 64 l 1,0,-1
0 0 m 1,4,-1
 0 384 l 1,5,-1
 64 384 l 1,6,-1
 64 256 l 1,7,-1
 256 256 l 1,8,-1
 256 384 l 1,9,-1
 320 384 l 1,10,-1
 320 256 l 1,11,-1
 384 256 l 1,12,-1
 384 192 l 1,13,-1
 320 192 l 1,14,-1
 320 64 l 1,15,-1
 384 64 l 1,16,-1
 384 0 l 1,17,-1
 256 0 l 1,18,-1
 256 192 l 1,19,-1
 64 192 l 1,20,-1
 64 0 l 1,21,-1
 0 0 l 1,4,-1
EndSplineSet
EndChar
StartChar: uni045B
Encoding: 1115 1115 368
Width: 448
Flags: W
LayerCount: 2
Back
Fore
SplineSet
320 0 m 1,0,-1
 320 320 l 1,1,-1
 384 320 l 1,2,-1
 384 0 l 1,3,-1
 320 0 l 1,0,-1
64 0 m 1,4,-1
 64 448 l 1,5,-1
 0 448 l 1,6,-1
 0 512 l 1,7,-1
 64 512 l 1,8,-1
 64 576 l 1,9,-1
 128 576 l 1,10,-1
 128 512 l 1,11,-1
 256 512 l 1,12,-1
 256 448 l 1,13,-1
 128 448 l 1,14,-1
 128 384 l 1,15,-1
 320 384 l 1,16,-1
 320 320 l 1,17,-1
 128 320 l 1,18,-1
 128 0 l 1,19,-1
 64 0 l 1,4,-1
EndSplineSet
EndChar
StartChar: uni045F
Encoding: 1119 1119 370
Width: 448
Flags: W
LayerCount: 2
Back
Fore
SplineSet
192 -128 m 1,0,-1
 192 0 l 1,1,-1
 64 0 l 1,2,-1
 64 384 l 1,3,-1
 128 384 l 1,4,-1
 128 64 l 1,5,-1
 320 64 l 1,6,-1
 320 384 l 1,7,-1
 384 384 l 1,8,-1
 384 0 l 1,9,-1
 256 0 l 1,10,-1
 256 -128 l 1,11,-1
 192 -128 l 1,0,-1
EndSplineSet
EndChar
StartChar: uni05D0
Encoding: 1488 1488 371
Width: 448
Flags: W
LayerCount: 2
Back
Fore
SplineSet
384 0 m 1,0,-1
 384 128 l 1,1,-1
 448 128 l 1,2,-1
 448 0 l 1,3,-1
 384 0 l 1,0,-1
320 128 m 1,4,-1
 320 192 l 1,5,-1
 384 192 l 1,6,-1
 384 128 l 1,7,-1
 320 128 l 1,4,-1
256 192 m 1,8,-1
 256 256 l 1,9,-1
 320 256 l 1,10,-1
 320 192 l 1,11,-1
 256 192 l 1,8,-1
64 0 m 1,12,-1
 64 320 l 1,13,-1
 128 320 l 1,14,-1
 128 64 l 1,15,-1
 192 64 l 1,16,-1
 192 0 l 1,17,-1
 64 0 l 1,12,-1
192 256 m 1,18,-1
 192 320 l 1,19,-1
 256 320 l 1,20,-1
 256 256 l 1,21,-1
 192 256 l 1,18,-1
128 320 m 1,22,-1
 128 384 l 1,23,-1
 192 384 l 1,24,-1
 192 320 l 1,25,-1
 128 320 l 1,22,-1
64 384 m 1,26,-1
 64 448 l 1,27,-1
 128 448 l 1,28,-1
 128 384 l 1,29,-1
 64 384 l 1,26,-1
384 192 m 1,30,-1
 384 384 l 1,31,-1
 320 384 l 1,32,-1
 320 448 l 1,33,-1
 448 448 l 1,34,-1
 448 192 l 1,35,-1
 384 192 l 1,30,-1
EndSplineSet
EndChar
StartChar: uni05D1
Encoding: 1489 1489 372
Width: 448
Flags: W
LayerCount: 2
Back
Fore
SplineSet
64 0 m 1,0,-1
 64 64 l 1,1,-1
 320 64 l 1,2,-1
 320 384 l 1,3,-1
 384 384 l 1,4,-1
 384 64 l 1,5,-1
 448 64 l 1,6,-1
 448 0 l 1,7,-1
 64 0 l 1,0,-1
128 384 m 1,8,-1
 128 448 l 1,9,-1
 320 448 l 1,10,-1
 320 384 l 1,11,-1
 128 384 l 1,8,-1
EndSplineSet
EndChar
StartChar: uni05D2
Encoding: 1490 1490 373
Width: 448
Flags: W
LayerCount: 2
Back
Fore
SplineSet
128 0 m 1,0,-1
 128 64 l 1,1,-1
 192 64 l 1,2,-1
 192 0 l 1,3,-1
 128 0 l 1,0,-1
192 64 m 1,4,-1
 192 128 l 1,5,-1
 256 128 l 1,6,-1
 256 64 l 1,7,-1
 192 64 l 1,4,-1
320 0 m 1,8,-1
 320 128 l 1,9,-1
 256 128 l 1,10,-1
 256 192 l 1,11,-1
 320 192 l 1,12,-1
 320 384 l 1,13,-1
 384 384 l 1,14,-1
 384 0 l 1,15,-1
 320 0 l 1,8,-1
192 384 m 1,16,-1
 192 448 l 1,17,-1
 320 448 l 1,18,-1
 320 384 l 1,19,-1
 192 384 l 1,16,-1
EndSplineSet
EndChar
StartChar: uni05D3
Encoding: 1491 1491 374
Width: 448
Flags: W
LayerCount: 2
Back
Fore
SplineSet
320 0 m 1,0,-1
 320 384 l 1,1,-1
 64 384 l 1,2,-1
 64 448 l 1,3,-1
 448 448 l 1,4,-1
 448 384 l 1,5,-1
 384 384 l 1,6,-1
 384 0 l 1,7,-1
 320 0 l 1,0,-1
EndSplineSet
EndChar
StartChar: uni05D5
Encoding: 1493 1493 376
Width: 448
Flags: W
LayerCount: 2
Back
Fore
SplineSet
256 0 m 1,0,-1
 256 384 l 1,1,-1
 320 384 l 1,2,-1
 320 0 l 1,3,-1
 256 0 l 1,0,-1
192 384 m 1,4,-1
 192 448 l 1,5,-1
 256 448 l 1,6,-1
 256 384 l 1,7,-1
 192 384 l 1,4,-1
EndSplineSet
EndChar
StartChar: uni05D6
Encoding: 1494 1494 377
Width: 448
Flags: W
LayerCount: 2
Back
Fore
SplineSet
192 0 m 1,0,-1
 192 320 l 1,1,-1
 256 320 l 1,2,-1
 256 0 l 1,3,-1
 192 0 l 1,0,-1
256 320 m 1,4,-1
 256 384 l 1,5,-1
 128 384 l 1,6,-1
 128 448 l 1,7,-1
 384 448 l 1,8,-1
 384 384 l 1,9,-1
 320 384 l 1,10,-1
 320 320 l 1,11,-1
 256 320 l 1,4,-1
EndSplineSet
EndChar
StartChar: uni05D7
Encoding: 1495 1495 378
Width: 448
Flags: W
LayerCount: 2
Back
Fore
SplineSet
384 0 m 1,0,-1
 384 384 l 1,1,-1
 448 384 l 1,2,-1
 448 0 l 1,3,-1
 384 0 l 1,0,-1
64 0 m 1,4,-1
 64 448 l 1,5,-1
 384 448 l 1,6,-1
 384 384 l 1,7,-1
 128 384 l 1,8,-1
 128 0 l 1,9,-1
 64 0 l 1,4,-1
EndSplineSet
EndChar
StartChar: uni05D8
Encoding: 1496 1496 379
Width: 448
Flags: W
LayerCount: 2
Back
Fore
SplineSet
128 0 m 1,0,-1
 128 64 l 1,1,-1
 384 64 l 1,2,-1
 384 0 l 1,3,-1
 128 0 l 1,0,-1
256 320 m 1,4,-1
 256 384 l 1,5,-1
 320 384 l 1,6,-1
 320 320 l 1,7,-1
 256 320 l 1,4,-1
64 64 m 1,8,-1
 64 448 l 1,9,-1
 128 448 l 1,10,-1
 128 64 l 1,11,-1
 64 64 l 1,8,-1
384 64 m 1,12,-1
 384 384 l 1,13,-1
 320 384 l 1,14,-1
 320 448 l 1,15,-1
 448 448 l 1,16,-1
 448 64 l 1,17,-1
 384 64 l 1,12,-1
EndSplineSet
EndChar
StartChar: uni05D9
Encoding: 1497 1497 380
Width: 448
Flags: W
LayerCount: 2
Back
Fore
SplineSet
256 192 m 1,0,-1
 256 384 l 1,1,-1
 320 384 l 1,2,-1
 320 192 l 1,3,-1
 256 192 l 1,0,-1
192 384 m 1,4,-1
 192 448 l 1,5,-1
 256 448 l 1,6,-1
 256 384 l 1,7,-1
 192 384 l 1,4,-1
EndSplineSet
EndChar
StartChar: uni05DA
Encoding: 1498 1498 381
Width: 448
Flags: W
LayerCount: 2
Back
Fore
SplineSet
320 -192 m 1,0,-1
 320 384 l 1,1,-1
 384 384 l 1,2,-1
 384 -192 l 1,3,-1
 320 -192 l 1,0,-1
64 384 m 1,4,-1
 64 448 l 1,5,-1
 320 448 l 1,6,-1
 320 384 l 1,7,-1
 64 384 l 1,4,-1
EndSplineSet
EndChar
StartChar: uni05DB
Encoding: 1499 1499 382
Width: 448
Flags: W
LayerCount: 2
Back
Fore
SplineSet
64 0 m 1,0,-1
 64 64 l 1,1,-1
 320 64 l 1,2,-1
 320 0 l 1,3,-1
 64 0 l 1,0,-1
320 64 m 1,4,-1
 320 384 l 1,5,-1
 384 384 l 1,6,-1
 384 64 l 1,7,-1
 320 64 l 1,4,-1
64 384 m 1,8,-1
 64 448 l 1,9,-1
 320 448 l 1,10,-1
 320 384 l 1,11,-1
 64 384 l 1,8,-1
EndSplineSet
EndChar
StartChar: uni05DC
Encoding: 1500 1500 383
Width: 448
Flags: W
LayerCount: 2
Back
Fore
SplineSet
128 0 m 1,0,-1
 128 128 l 1,1,-1
 192 128 l 1,2,-1
 192 0 l 1,3,-1
 128 0 l 1,0,-1
192 128 m 1,4,-1
 192 192 l 1,5,-1
 256 192 l 1,6,-1
 256 128 l 1,7,-1
 192 128 l 1,4,-1
256 192 m 1,8,-1
 256 256 l 1,9,-1
 320 256 l 1,10,-1
 320 192 l 1,11,-1
 256 192 l 1,8,-1
320 256 m 1,12,-1
 320 384 l 1,13,-1
 64 384 l 1,14,-1
 64 576 l 1,15,-1
 128 576 l 1,16,-1
 128 448 l 1,17,-1
 384 448 l 1,18,-1
 384 256 l 1,19,-1
 320 256 l 1,12,-1
EndSplineSet
EndChar
StartChar: uni05DE
Encoding: 1502 1502 385
Width: 448
Flags: W
LayerCount: 2
Back
Fore
SplineSet
64 0 m 1,0,-1
 64 256 l 1,1,-1
 128 256 l 1,2,-1
 128 0 l 1,3,-1
 64 0 l 1,0,-1
128 256 m 1,4,-1
 128 384 l 1,5,-1
 256 384 l 1,6,-1
 256 320 l 1,7,-1
 192 320 l 1,8,-1
 192 256 l 1,9,-1
 128 256 l 1,4,-1
256 0 m 1,10,-1
 256 64 l 1,11,-1
 384 64 l 1,12,-1
 384 384 l 1,13,-1
 448 384 l 1,14,-1
 448 0 l 1,15,-1
 256 0 l 1,10,-1
64 384 m 1,16,-1
 64 448 l 1,17,-1
 128 448 l 1,18,-1
 128 384 l 1,19,-1
 64 384 l 1,16,-1
256 384 m 1,20,-1
 256 448 l 1,21,-1
 384 448 l 1,22,-1
 384 384 l 1,23,-1
 256 384 l 1,20,-1
EndSplineSet
EndChar
StartChar: uni05E0
Encoding: 1504 1504 387
Width: 448
Flags: W
LayerCount: 2
Back
Fore
SplineSet
128 0 m 1,0,-1
 128 64 l 1,1,-1
 256 64 l 1,2,-1
 256 384 l 1,3,-1
 320 384 l 1,4,-1
 320 0 l 1,5,-1
 128 0 l 1,0,-1
192 384 m 1,6,-1
 192 448 l 1,7,-1
 256 448 l 1,8,-1
 256 384 l 1,9,-1
 192 384 l 1,6,-1
EndSplineSet
EndChar
StartChar: uni05E1
Encoding: 1505 1505 388
Width: 448
Flags: W
LayerCount: 2
Back
Fore
SplineSet
192 0 m 1,0,-1
 192 64 l 1,1,-1
 320 64 l 1,2,-1
 320 0 l 1,3,-1
 192 0 l 1,0,-1
128 64 m 1,4,-1
 128 128 l 1,5,-1
 192 128 l 1,6,-1
 192 64 l 1,7,-1
 128 64 l 1,4,-1
320 64 m 1,8,-1
 320 128 l 1,9,-1
 384 128 l 1,10,-1
 384 64 l 1,11,-1
 320 64 l 1,8,-1
64 128 m 1,12,-1
 64 320 l 1,13,-1
 128 320 l 1,14,-1
 128 128 l 1,15,-1
 64 128 l 1,12,-1
384 128 m 1,16,-1
 384 320 l 1,17,-1
 448 320 l 1,18,-1
 448 128 l 1,19,-1
 384 128 l 1,16,-1
128 320 m 1,20,-1
 128 384 l 1,21,-1
 64 384 l 1,22,-1
 64 448 l 1,23,-1
 384 448 l 1,24,-1
 384 320 l 1,25,-1
 320 320 l 1,26,-1
 320 384 l 1,27,-1
 192 384 l 1,28,-1
 192 320 l 1,29,-1
 128 320 l 1,20,-1
EndSplineSet
EndChar
StartChar: uni05E3
Encoding: 1507 1507 390
Width: 448
Flags: W
LayerCount: 2
Back
Fore
SplineSet
64 192 m 1,0,-1
 64 384 l 1,1,-1
 128 384 l 1,2,-1
 128 256 l 1,3,-1
 256 256 l 1,4,-1
 256 192 l 1,5,-1
 64 192 l 1,0,-1
384 -192 m 1,6,-1
 384 384 l 1,7,-1
 448 384 l 1,8,-1
 448 -192 l 1,9,-1
 384 -192 l 1,6,-1
128 384 m 1,10,-1
 128 448 l 1,11,-1
 384 448 l 1,12,-1
 384 384 l 1,13,-1
 128 384 l 1,10,-1
EndSplineSet
EndChar
StartChar: uni05E4
Encoding: 1508 1508 391
Width: 448
Flags: W
LayerCount: 2
Back
Fore
SplineSet
64 192 m 1,0,-1
 64 384 l 1,1,-1
 128 384 l 1,2,-1
 128 256 l 1,3,-1
 256 256 l 1,4,-1
 256 192 l 1,5,-1
 64 192 l 1,0,-1
64 0 m 1,6,-1
 64 64 l 1,7,-1
 384 64 l 1,8,-1
 384 384 l 1,9,-1
 448 384 l 1,10,-1
 448 0 l 1,11,-1
 64 0 l 1,6,-1
128 384 m 1,12,-1
 128 448 l 1,13,-1
 384 448 l 1,14,-1
 384 384 l 1,15,-1
 128 384 l 1,12,-1
EndSplineSet
EndChar
StartChar: uni05E5
Encoding: 1509 1509 392
Width: 448
Flags: W
LayerCount: 2
Back
Fore
SplineSet
192 -192 m 1,0,-1
 192 192 l 1,1,-1
 256 192 l 1,2,-1
 256 -192 l 1,3,-1
 192 -192 l 1,0,-1
256 192 m 1,4,-1
 256 256 l 1,5,-1
 320 256 l 1,6,-1
 320 192 l 1,7,-1
 256 192 l 1,4,-1
128 192 m 1,8,-1
 128 320 l 1,9,-1
 192 320 l 1,10,-1
 192 192 l 1,11,-1
 128 192 l 1,8,-1
64 320 m 1,12,-1
 64 448 l 1,13,-1
 128 448 l 1,14,-1
 128 320 l 1,15,-1
 64 320 l 1,12,-1
320 256 m 1,16,-1
 320 448 l 1,17,-1
 384 448 l 1,18,-1
 384 256 l 1,19,-1
 320 256 l 1,16,-1
EndSplineSet
EndChar
StartChar: uni05E8
Encoding: 1512 1512 395
Width: 448
Flags: W
LayerCount: 2
Back
Fore
SplineSet
320 0 m 1,0,-1
 320 384 l 1,1,-1
 384 384 l 1,2,-1
 384 0 l 1,3,-1
 320 0 l 1,0,-1
64 384 m 1,4,-1
 64 448 l 1,5,-1
 320 448 l 1,6,-1
 320 384 l 1,7,-1
 64 384 l 1,4,-1
EndSplineSet
EndChar
StartChar: uni05E9
Encoding: 1513 1513 396
Width: 448
Flags: W
LayerCount: 2
Back
Fore
SplineSet
128 0 m 1,0,-1
 128 64 l 1,1,-1
 320 64 l 1,2,-1
 320 0 l 1,3,-1
 128 0 l 1,0,-1
64 64 m 1,4,-1
 64 128 l 1,5,-1
 128 128 l 1,6,-1
 128 64 l 1,7,-1
 64 64 l 1,4,-1
320 64 m 1,8,-1
 320 128 l 1,9,-1
 384 128 l 1,10,-1
 384 64 l 1,11,-1
 320 64 l 1,8,-1
128 128 m 1,12,-1
 128 192 l 1,13,-1
 192 192 l 1,14,-1
 192 128 l 1,15,-1
 128 128 l 1,12,-1
0 128 m 1,16,-1
 0 448 l 1,17,-1
 64 448 l 1,18,-1
 64 128 l 1,19,-1
 0 128 l 1,16,-1
192 192 m 1,20,-1
 192 448 l 1,21,-1
 256 448 l 1,22,-1
 256 192 l 1,23,-1
 192 192 l 1,20,-1
384 128 m 1,24,-1
 384 448 l 1,25,-1
 448 448 l 1,26,-1
 448 128 l 1,27,-1
 384 128 l 1,24,-1
EndSplineSet
EndChar
StartChar: uni05F3
Encoding: 1523 1523 398
Width: 448
Flags: W
LayerCount: 2
Back
Fore
SplineSet
192 384 m 1,0,-1
 192 448 l 1,1,-1
 256 448 l 1,2,-1
 256 384 l 1,3,-1
 192 384 l 1,0,-1
256 448 m 1,4,-1
 256 512 l 1,5,-1
 320 512 l 1,6,-1
 320 448 l 1,7,-1
 256 448 l 1,4,-1
EndSplineSet
EndChar
StartChar: quoteleft
Encoding: 8216 8216 400
Width: 448
Flags: W
LayerCount: 2
Back
Fore
SplineSet
256 384 m 1,0,-1
 256 448 l 1,1,-1
 320 448 l 1,2,-1
 320 384 l 1,3,-1
 256 384 l 1,0,-1
192 448 m 1,4,-1
 192 576 l 1,5,-1
 256 576 l 1,6,-1
 256 448 l 1,7,-1
 192 448 l 1,4,-1
EndSplineSet
EndChar
StartChar: quotesinglbase
Encoding: 8218 8218 402
Width: 448
Flags: W
LayerCount: 2
Back
Fore
SplineSet
128 -128 m 1,0,-1
 128 -64 l 1,1,-1
 192 -64 l 1,2,-1
 192 -128 l 1,3,-1
 128 -128 l 1,0,-1
192 -64 m 1,4,-1
 192 128 l 1,5,-1
 256 128 l 1,6,-1
 256 -64 l 1,7,-1
 192 -64 l 1,4,-1
EndSplineSet
EndChar
StartChar: quotereversed
Encoding: 8219 8219 403
Width: 448
Flags: W
LayerCount: 2
Back
Fore
SplineSet
192 320 m 1,0,-1
 192 384 l 1,1,-1
 256 384 l 1,2,-1
 256 320 l 1,3,-1
 192 320 l 1,0,-1
128 384 m 1,4,-1
 128 576 l 1,5,-1
 192 576 l 1,6,-1
 192 384 l 1,7,-1
 128 384 l 1,4,-1
EndSplineSet
EndChar
StartChar: quotedblleft
Encoding: 8220 8220 404
Width: 448
Flags: W
LayerCount: 2
Back
Fore
SplineSet
192 384 m 1,0,-1
 192 448 l 1,1,-1
 256 448 l 1,2,-1
 256 384 l 1,3,-1
 192 384 l 1,0,-1
320 384 m 1,4,-1
 320 448 l 1,5,-1
 384 448 l 1,6,-1
 384 384 l 1,7,-1
 320 384 l 1,4,-1
128 448 m 1,8,-1
 128 576 l 1,9,-1
 192 576 l 1,10,-1
 192 448 l 1,11,-1
 128 448 l 1,8,-1
256 448 m 1,12,-1
 256 576 l 1,13,-1
 320 576 l 1,14,-1
 320 448 l 1,15,-1
 256 448 l 1,12,-1
EndSplineSet
EndChar
StartChar: quotedblright
Encoding: 8221 8221 405
Width: 448
Flags: W
LayerCount: 2
Back
Fore
SplineSet
64 384 m 1,0,-1
 64 448 l 1,1,-1
 128 448 l 1,2,-1
 128 384 l 1,3,-1
 64 384 l 1,0,-1
192 384 m 1,4,-1
 192 448 l 1,5,-1
 256 448 l 1,6,-1
 256 384 l 1,7,-1
 192 384 l 1,4,-1
128 448 m 1,8,-1
 128 576 l 1,9,-1
 192 576 l 1,10,-1
 192 448 l 1,11,-1
 128 448 l 1,8,-1
256 448 m 1,12,-1
 256 576 l 1,13,-1
 320 576 l 1,14,-1
 320 448 l 1,15,-1
 256 448 l 1,12,-1
EndSplineSet
EndChar
StartChar: quotedblbase
Encoding: 8222 8222 406
Width: 448
Flags: W
LayerCount: 2
Back
Fore
SplineSet
64 -128 m 1,0,-1
 64 -64 l 1,1,-1
 128 -64 l 1,2,-1
 128 -128 l 1,3,-1
 64 -128 l 1,0,-1
192 -128 m 1,4,-1
 192 -64 l 1,5,-1
 256 -64 l 1,6,-1
 256 -128 l 1,7,-1
 192 -128 l 1,4,-1
128 -64 m 1,8,-1
 128 128 l 1,9,-1
 192 128 l 1,10,-1
 192 -64 l 1,11,-1
 128 -64 l 1,8,-1
256 -64 m 1,12,-1
 256 128 l 1,13,-1
 320 128 l 1,14,-1
 320 -64 l 1,15,-1
 256 -64 l 1,12,-1
EndSplineSet
EndChar
StartChar: guilsinglleft
Encoding: 8249 8249 407
Width: 448
Flags: W
LayerCount: 2
Back
Fore
SplineSet
192 64 m 1,0,-1
 192 128 l 1,1,-1
 256 128 l 1,2,-1
 256 64 l 1,3,-1
 192 64 l 1,0,-1
128 128 m 1,4,-1
 128 192 l 1,5,-1
 192 192 l 1,6,-1
 192 128 l 1,7,-1
 128 128 l 1,4,-1
64 192 m 1,8,-1
 64 256 l 1,9,-1
 128 256 l 1,10,-1
 128 192 l 1,11,-1
 64 192 l 1,8,-1
128 256 m 1,12,-1
 128 320 l 1,13,-1
 192 320 l 1,14,-1
 192 256 l 1,15,-1
 128 256 l 1,12,-1
192 320 m 1,16,-1
 192 384 l 1,17,-1
 256 384 l 1,18,-1
 256 320 l 1,19,-1
 192 320 l 1,16,-1
EndSplineSet
EndChar
StartChar: Euro
Encoding: 8364 8364 409
Width: 448
Flags: W
LayerCount: 2
Back
Fore
SplineSet
192 0 m 1,0,-1
 192 64 l 1,1,-1
 384 64 l 1,2,-1
 384 0 l 1,3,-1
 192 0 l 1,0,-1
384 64 m 1,4,-1
 384 128 l 1,5,-1
 448 128 l 1,6,-1
 448 64 l 1,7,-1
 384 64 l 1,4,-1
128 64 m 1,8,-1
 128 128 l 1,9,-1
 64 128 l 1,10,-1
 64 192 l 1,11,-1
 128 192 l 1,12,-1
 128 256 l 1,13,-1
 64 256 l 1,14,-1
 64 320 l 1,15,-1
 128 320 l 1,16,-1
 128 384 l 1,17,-1
 192 384 l 1,18,-1
 192 320 l 1,19,-1
 320 320 l 1,20,-1
 320 256 l 1,21,-1
 192 256 l 1,22,-1
 192 192 l 1,23,-1
 320 192 l 1,24,-1
 320 128 l 1,25,-1
 192 128 l 1,26,-1
 192 64 l 1,27,-1
 128 64 l 1,8,-1
384 320 m 1,28,-1
 384 384 l 1,29,-1
 448 384 l 1,30,-1
 448 320 l 1,31,-1
 384 320 l 1,28,-1
192 384 m 1,32,-1
 192 448 l 1,33,-1
 384 448 l 1,34,-1
 384 384 l 1,35,-1
 192 384 l 1,32,-1
EndSplineSet
EndChar
StartChar: trademark
Encoding: 8482 8482 410
Width: 448
Flags: W
LayerCount: 2
Back
Fore
SplineSet
64 256 m 1,0,-1
 64 448 l 1,1,-1
 0 448 l 1,2,-1
 0 512 l 1,3,-1
 192 512 l 1,4,-1
 192 448 l 1,5,-1
 128 448 l 1,6,-1
 128 256 l 1,7,-1
 64 256 l 1,0,-1
256 256 m 1,8,-1
 256 512 l 1,9,-1
 320 512 l 1,10,-1
 320 448 l 1,11,-1
 384 448 l 1,12,-1
 384 512 l 1,13,-1
 448 512 l 1,14,-1
 448 256 l 1,15,-1
 384 256 l 1,16,-1
 384 384 l 1,17,-1
 320 384 l 1,18,-1
 320 256 l 1,19,-1
 256 256 l 1,8,-1
EndSplineSet
EndChar
StartChar: radical
Encoding: 8730 8730 412
Width: 448
Flags: W
LayerCount: 2
Back
Fore
SplineSet
192 0 m 1,0,-1
 192 128 l 1,1,-1
 256 128 l 1,2,-1
 256 0 l 1,3,-1
 192 0 l 1,0,-1
128 128 m 1,4,-1
 128 256 l 1,5,-1
 192 256 l 1,6,-1
 192 128 l 1,7,-1
 128 128 l 1,4,-1
256 128 m 1,8,-1
 256 320 l 1,9,-1
 320 320 l 1,10,-1
 320 128 l 1,11,-1
 256 128 l 1,8,-1
64 256 m 1,12,-1
 64 320 l 1,13,-1
 0 320 l 1,14,-1
 0 384 l 1,15,-1
 128 384 l 1,16,-1
 128 256 l 1,17,-1
 64 256 l 1,12,-1
320 320 m 1,18,-1
 320 448 l 1,19,-1
 384 448 l 1,20,-1
 384 320 l 1,21,-1
 320 320 l 1,18,-1
384 448 m 1,22,-1
 384 576 l 1,23,-1
 448 576 l 1,24,-1
 448 448 l 1,25,-1
 384 448 l 1,22,-1
EndSplineSet
EndChar
StartChar: infinity
Encoding: 8734 8734 413
Width: 448
Flags: W
LayerCount: 2
Back
Fore
SplineSet
192 192 m 1,0,-1
 192 256 l 1,1,-1
 128 256 l 1,2,-1
 128 192 l 1,3,-1
 192 192 l 1,0,-1
384 192 m 1,4,-1
 384 256 l 1,5,-1
 320 256 l 1,6,-1
 320 192 l 1,7,-1
 384 192 l 1,4,-1
64 128 m 1,8,-1
 64 320 l 1,9,-1
 448 320 l 1,10,-1
 448 128 l 1,11,-1
 64 128 l 1,8,-1
EndSplineSet
EndChar
StartChar: integral
Encoding: 8747 8747 414
Width: 448
Flags: W
LayerCount: 2
Back
Fore
SplineSet
0 -128 m 1,0,-1
 0 -64 l 1,1,-1
 64 -64 l 1,2,-1
 64 -128 l 1,3,-1
 0 -128 l 1,0,-1
64 -64 m 1,4,-1
 64 576 l 1,5,-1
 128 576 l 1,6,-1
 128 -64 l 1,7,-1
 64 -64 l 1,4,-1
128 576 m 1,8,-1
 128 640 l 1,9,-1
 192 640 l 1,10,-1
 192 576 l 1,11,-1
 128 576 l 1,8,-1
EndSplineSet
EndChar
